<svg width="64" height="48" viewBox="0 0 64 48" fill="none" xmlns="http://www.w3.org/2000/svg">
<path d="M25.1288 1.63443C25.0213 0.884588 24.8642 0.101932 25.8291 0.0183381C26.2646 -0.0102556 26.7167 0.0166201 27.1539 0.0169326L29.8844 0.0177135C32.2139 0.0181822 34.55 -0.0204112 36.8789 0.0149013C38.1622 0.0344326 37.9441 0.580682 37.8877 1.63443L54.9333 1.63396C55.7664 1.63303 57.6586 1.25428 57.6686 2.41662C57.6764 3.33084 56.63 3.19693 56.0216 3.1974H48.171V6.58084L54.0524 6.57943C54.8993 6.57943 57.5482 6.15396 57.6263 7.3074C57.7024 8.43302 56.1785 8.1613 55.4986 8.16115L48.8322 8.1574C46.7136 8.14834 47.2639 8.13584 45.3728 9.27552C42.136 11.2265 40.6211 12.1104 36.6088 12.1108C36.4539 13.7661 35.9735 15.251 34.301 15.9786V19.923C35.2981 19.9252 37.1788 19.8007 38.056 20.033C39.8188 20.4999 40.3702 22.8382 39.0677 24.1185C38.1933 24.978 36.8139 24.7999 35.688 24.7985C34.5539 24.801 33.4186 24.7785 32.2849 24.7985C32.2935 25.7424 31.7296 26.9288 30.8949 26.0272C30.6132 25.723 30.6972 25.1827 30.7067 24.7985L27.3928 24.8024C26.1597 24.8032 24.9838 24.999 24.0091 24.0824C23.0561 23.1863 23.0703 21.5827 23.9889 20.6669C24.7919 19.8665 25.8827 19.9205 26.9332 19.9205L28.6988 19.923V15.9786C27.2808 15.0699 26.5508 13.8046 26.3908 12.1108C24.2739 12.2447 22.1052 11.7861 20.2135 10.8272C18.7 10.0599 17.0953 8.64724 15.4936 8.21943C14.9686 8.07927 14.2666 8.15881 13.7217 8.15849L7.61143 8.16224C7.07833 8.16287 6.48884 8.21302 5.96403 8.13396C5.34564 8.04084 5.11568 7.21115 5.55731 6.77771C5.97933 6.36365 8.21034 6.57927 8.82128 6.57943L14.7958 6.58084V3.1974L6.95662 3.19724C6.62279 3.19693 6.27117 3.21834 5.93954 3.18709C5.29417 3.12615 5.09181 2.26678 5.51076 1.82162C5.8745 1.43521 7.46815 1.63224 7.98175 1.63287L25.1288 1.63443ZM26.7739 1.63443C26.7203 2.34584 26.8628 3.08849 26.9491 3.79584L27.8125 10.8644C28.1938 13.7593 28.1569 14.776 31.6594 14.7707C33.1 14.7683 34.2088 14.7313 34.8202 13.2555C35.0169 12.5779 35.0719 11.8732 35.1561 11.1749L36.3344 1.63443H26.7739ZM16.3413 3.1974C16.3405 4.41771 16.3103 5.64537 16.3413 6.86474C19.7664 8.1474 21.7614 11.0338 26.1307 10.5096C25.98 8.27474 25.2607 5.32474 25.3711 3.1974H16.3413ZM37.7338 3.1974C37.3872 5.61443 37.0524 8.0788 36.8414 10.5096C39.6492 10.4897 41.2807 9.9599 43.6277 8.44646C44.5939 7.83271 45.603 7.27881 46.5986 6.71381V3.1974H37.7338ZM30.3022 16.3235V19.923C31.1071 19.9235 31.9278 19.9569 32.7308 19.923V16.3235H30.3022ZM25.6755 21.4805C24.9394 21.6227 24.4786 22.6235 25.2325 23.0808C25.8092 23.4308 29.0667 23.2344 29.8722 23.2343L37.4308 23.234C38.3277 23.059 38.5155 22.0135 37.7724 21.5968C37.2386 21.2976 33.8972 21.4785 33.131 21.4785L25.6755 21.4805Z" fill="white"/>
<path d="M26.7739 1.63443C26.7203 2.34584 26.8628 3.08849 26.9491 3.79584L27.8125 10.8644C28.1938 13.7593 28.1569 14.776 31.6594 14.7707C33.1 14.7683 34.2088 14.7313 34.8202 13.2555C35.0169 12.5779 35.0719 11.8732 35.1561 11.1749L36.3344 1.63443H26.7739Z" fill="white"/>
<path d="M37.7338 3.1974C37.3872 5.61443 37.0524 8.0788 36.8414 10.5096C39.6492 10.4897 41.2807 9.9599 43.6277 8.44646C44.5939 7.83271 45.603 7.27881 46.5986 6.71381V3.1974H37.7338Z" fill="white"/>
<path d="M16.3413 3.1974C16.3405 4.41771 16.3103 5.64537 16.3413 6.86474C19.7664 8.1474 21.7614 11.0338 26.1307 10.5096C25.98 8.27474 25.2607 5.32474 25.3711 3.1974H16.3413Z" fill="white"/>
<path d="M25.6755 21.4805C24.9394 21.6227 24.4786 22.6235 25.2325 23.0808C25.8092 23.4308 29.0667 23.2344 29.8722 23.2343L37.4308 23.234C38.3277 23.059 38.5155 22.0135 37.7724 21.5968C37.2386 21.2976 33.8972 21.4785 33.131 21.4785L25.6755 21.4805Z" fill="white"/>
<path d="M3.33044 3.1974C2.76227 3.22615 0.918546 3.29006 0.473905 3.0899C-0.294266 2.74397 -0.0330477 1.88397 0.632562 1.63444C1.13522 1.60475 2.8473 1.55694 3.27892 1.66272C4.11725 1.86834 3.92455 2.83584 3.33044 3.1974Z" fill="white"/>
<path d="M62.4951 3.19741C61.9525 3.23616 60.2047 3.27037 59.7464 3.14147C58.8579 2.89147 59.0154 1.96084 59.7308 1.63444C60.6595 1.55975 63.33 1.28366 62.9895 2.62037C62.9204 2.89209 62.7281 3.061 62.4951 3.19741Z" fill="white"/>
<path d="M3.33052 8.15881C3.00991 8.21413 1.00041 8.19725 0.689707 8.12897C-0.174433 7.93928 -0.200809 7.01116 0.466582 6.58085C1.30633 6.56881 2.2081 6.5085 3.04235 6.58163C4.10241 6.67444 3.96669 7.63319 3.33052 8.15881Z" fill="white"/>
<path d="M62.4951 8.15882C62.0697 8.20428 59.9734 8.20975 59.6428 8.08929C58.8245 7.791 59.0517 6.86147 59.7308 6.58085C60.3894 6.57397 61.8072 6.48944 62.3811 6.60272C63.3156 6.78694 63.1986 7.7771 62.4951 8.15882Z" fill="white"/>
<path d="M12.8541 25.681C12.5187 25.6774 12.1519 25.548 12.0483 25.1919C11.8553 24.5296 11.5295 21.3196 12.6367 20.9746C12.953 20.9612 13.3487 21.044 13.4626 21.3847C13.593 21.7746 13.6256 24.9602 13.4525 25.2873C13.3212 25.5357 13.1056 25.6016 12.8541 25.681Z" fill="white"/>
<path d="M50.3234 25.681C48.7818 25.7296 49.3673 21.8762 49.5076 21.6397C49.6386 21.419 49.8218 21.3522 50.0598 21.2904C50.382 21.2905 50.7495 21.3762 50.8961 21.701C51.1472 22.2571 51.437 25.1579 50.3234 25.681Z" fill="white"/>
<path d="M43.9716 23.234C44.072 22.7705 44.177 22.5857 44.6612 22.4568C45.8633 22.2508 47.8736 25.4148 48.2681 26.3205C48.4947 26.8408 48.2033 27.2915 47.7105 27.4983C46.6584 27.4719 46.5297 26.4237 46.0155 25.6874C45.5706 25.0507 44.0919 23.7013 43.9716 23.234Z" fill="white"/>
<path d="M10.1092 27.4983C9.14873 27.5799 9.03217 26.6436 8.64373 25.9744C8.03983 24.9343 5.79 23.1705 7.31592 22.4568C8.37498 22.4072 10.3217 25.5219 10.65 26.3596C10.8655 26.9093 10.6322 27.3041 10.1092 27.4983Z" fill="white"/>
<path d="M15.7827 27.4984C13.1885 27.5002 17.2707 22.8201 18.1837 22.5401C19.9587 22.6132 18.5669 24.093 18.0729 24.6165C17.476 25.2488 16.2562 27.3532 15.7827 27.4984Z" fill="white"/>
<path d="M53.4622 27.3632C51.259 27.6055 53.2834 23.6121 55.4061 22.6935C55.8012 22.6574 56.1332 22.7387 56.3207 23.1277C56.7172 23.9502 55.0972 24.7105 54.5875 25.3982C54.1128 26.0385 54.2536 26.9876 53.4622 27.3632Z" fill="white"/>
<path d="M31.7452 29.8635C30.4253 30.0199 30.2395 27.7949 31.3386 27.4984C32.5711 27.3994 32.725 29.4024 31.7452 29.8635Z" fill="white"/>
<path d="M12.9536 40.505C10.4636 40.5469 8.76613 38.3754 9.26129 35.9244C9.4902 34.7907 11.5175 30.5169 12.8541 30.3511C13.8669 30.3743 15.7432 34.0224 16.0868 34.9019C17.1124 37.5274 15.9293 40.3271 12.9536 40.505ZM12.8541 32.4121C12.07 33.3246 10.6455 35.7168 10.7197 36.9082C10.7918 38.0654 11.7104 38.9243 12.8541 38.9735C14.1288 38.8341 15.0466 37.881 14.8985 36.5721C14.7263 35.0514 13.6855 33.6508 12.8541 32.4121Z" fill="white"/>
<path d="M12.8541 32.4121C12.07 33.3246 10.6455 35.7168 10.7197 36.9082C10.7918 38.0654 11.7104 38.9243 12.8541 38.9735C14.1288 38.8341 15.0466 37.881 14.8985 36.5721C14.7263 35.0514 13.6855 33.6508 12.8541 32.4121Z" fill="white"/>
<path d="M50.5132 40.505C48.6255 40.5489 47.0299 39.4679 46.6183 37.5688C46.2063 35.6666 47.339 33.9183 48.326 32.3902C48.7966 31.6616 49.2866 30.5502 50.2085 30.3511C51.4868 30.4454 53.8896 35.281 53.9999 36.3949C54.2166 38.5825 52.6677 40.2994 50.5132 40.505ZM50.2085 32.4121C49.459 33.5196 47.8304 35.8158 48.1055 37.1811C48.3321 38.3055 49.2299 38.9293 50.3235 38.9735C54.1818 38.5719 51.6555 33.9746 50.2085 32.4121Z" fill="white"/>
<path d="M50.2085 32.4121C49.459 33.5196 47.8304 35.8158 48.1055 37.1811C48.3321 38.3055 49.2299 38.9293 50.3235 38.9735C54.1818 38.5719 51.6555 33.9746 50.2085 32.4121Z" fill="white"/>
<path d="M31.7452 40.505C29.0282 40.6444 27.2762 38.1443 28.0198 35.5321C28.374 34.2875 30.2141 30.9722 31.3387 30.3511C32.6782 30.3636 34.5076 33.9729 34.9112 35.0089C35.8823 37.5021 34.5934 40.4125 31.7452 40.505ZM31.5504 32.4121C30.0876 34.061 27.6759 38.6539 31.5504 38.9735C33.3955 38.7843 34.0568 37.1894 33.3963 35.5438C33.1182 34.8507 32.119 32.8064 31.5504 32.4121Z" fill="white"/>
<path d="M31.5504 32.4121C30.0876 34.061 27.6759 38.6539 31.5504 38.9735C33.3955 38.7843 34.0568 37.1894 33.3963 35.5438C33.1182 34.8507 32.119 32.8064 31.5504 32.4121Z" fill="white"/>
<path d="M32.0327 45.6514C28.4489 45.355 26.9952 48.7921 22.8913 47.1121C21.4803 46.5345 20.9994 45.7365 19.3102 45.6315C16.5392 45.4592 15.975 47.2737 13.3781 47.4956C9.71252 47.8089 9.22143 45.7076 6.6036 45.6332C5.94343 45.6145 5.21433 45.709 4.61124 45.9909C4.02437 46.2653 2.94685 47.2636 2.29512 46.6575C0.646412 45.1242 6.30263 43.0537 9.43377 44.8189C12.2025 46.3798 13.05 46.4517 15.7774 44.8551C17.7531 43.6987 20.4535 43.8473 22.3844 45.0229C26.5694 47.5712 27.5416 44.0906 30.9878 44.1057C34.5114 43.2603 35.7891 47.8496 40.5274 44.9965C42.4631 43.8309 44.8528 43.6865 46.8897 44.7211C48.0858 45.3286 48.6385 45.8432 50.0616 45.8571C53.1111 45.8867 54.1321 43.197 58.0547 44.2736C58.7245 44.4575 62.2228 45.752 60.6785 46.8611C60.1053 47.2726 59.5756 46.7487 59.0963 46.457C58.1514 45.882 57.2381 45.6071 56.1172 45.6523C54.5521 45.7151 54.3638 46.1939 53.1052 46.8259C51.4716 47.6461 49.09 47.6778 47.436 46.8676C45.8196 46.0761 45.5385 45.4265 43.3533 45.639C42.3171 45.7398 41.7406 46.1898 40.8669 46.6734C39.1025 47.6498 36.4717 47.7581 34.6602 46.8057C33.671 46.2857 33.1897 45.8243 32.0327 45.6514Z" fill="white"/>
</svg>
