<svg width="569" height="682" viewBox="0 0 569 682" fill="none" xmlns="http://www.w3.org/2000/svg">
<path d="M325.27 659.93C278.13 659.93 230.98 659.88 183.84 660.02C179.44 660.03 177.77 659.13 177.89 654.31C178.23 639.99 178.21 625.66 177.91 611.34C177.81 606.8 179.26 605.85 183.55 605.85C276.67 605.97 369.79 605.9 462.92 605.98C477.73 605.99 489.05 597.37 493.54 583.72C493.69 583.25 493.83 582.77 493.91 582.28C495.13 574.96 495.13 575.07 502.45 574.93C517.08 574.65 531.73 575.74 546.34 574.29C548.55 574.07 548.96 575.05 548.96 576.79C548.94 595.66 544.95 613.19 533.02 628.5C523.43 640.8 511.43 649.59 496.92 654.86C491.53 656.82 485.76 658.28 480.07 658.73C474.14 659.19 468.23 660.05 462.22 660.02C416.58 659.86 370.93 659.93 325.29 659.93H325.27Z" fill="white"/>
<path d="M105.04 139.01C140.15 139.01 169.46 139.01 198.78 139.01C206.67 139.01 210.01 142.32 210.01 150.19C210.02 173.18 210.03 196.17 210.01 219.16C210.01 226.7 206.62 230.02 198.97 230.03C143 230.03 87.02 229.99 31.05 230.08C24.8 230.08 18.63 230.78 12.46 228.81C7.37004 227.18 5.10005 223.86 5.09005 218.89C5.01005 195.57 4.99 172.25 5.11 148.92C5.14 143.16 8.16002 140.39 13.5 140C45.92 137.67 78.39 139.92 105.04 139.01ZM38.03 186.54C38.03 178.89 38.08 171.24 38.01 163.59C37.97 159.01 34.09 154.28 30.62 154.34C26.81 154.41 23.1 158.7 23.08 163.43C23.01 178.73 23.02 194.03 23.07 209.33C23.08 213.87 26.08 216.92 30.33 217.01C35.53 217.11 37.94 214.85 38 209.49C38.09 201.84 38.02 194.19 38.02 186.54H38.03ZM71.04 185.49C71.04 193.8 71.09 202.12 71.01 210.43C70.98 213.27 71.93 215.07 74.74 216.12C81.09 218.5 85.92 215.82 85.89 208.75C85.81 192.99 87.15 177.2 85.08 161.48C84.46 156.78 81.9 154.7 76.95 155.05C72.62 155.35 70.99 157.91 71.03 162.05C71.11 169.87 71.05 177.68 71.05 185.5L71.04 185.49ZM192 185.73C192 177.92 192.09 170.11 191.97 162.3C191.89 157.08 189.27 154.8 184.06 155.03C179.89 155.21 177.1 158.5 177.05 163.62C176.97 172.92 176.52 182.27 177.21 191.52C177.71 198.25 176.12 204.93 177.55 211.66C178.3 215.17 179.63 216.96 183.27 217.05C188.64 217.18 191.9 214.24 191.98 208.65C192.09 201.01 192.01 193.36 191.99 185.72L192 185.73ZM130.06 185.53C130.06 193.85 129.98 202.17 130.09 210.48C130.16 215.2 133.71 216.59 137.5 216.92C141.19 217.24 143.53 215.73 144.2 211.41C144.89 206.94 145.15 202.51 145 198.04C144.58 185.77 145.98 173.48 144.17 161.22C143.56 157.09 141.38 154.65 137.57 154.45C133 154.21 130.12 157.62 130.06 162.56C129.98 170.21 130.04 177.86 130.06 185.52V185.53Z" fill="white"/>
<path d="M451.96 452.45C451.96 441.62 452.13 430.79 451.89 419.96C451.79 415.45 451.86 412.52 457.91 412.69C475.71 413.2 493.84 410.67 511.03 416.98C534.46 425.58 555.22 449.42 554.99 476.48C554.88 488.75 554.95 501.03 554.99 513.31C554.99 515.46 555.06 517.64 555.4 519.76C555.91 522.9 554.57 524 551.61 524C530.28 523.97 508.96 523.95 487.63 524.03C484.74 524.04 483.85 522.91 483.93 520.19C484.05 516.2 484.35 512.12 483.75 508.21C482.26 498.63 473.91 492.03 463.89 491.99C455.937 491.957 451.96 487.943 451.96 479.95C451.96 470.79 451.96 461.62 451.96 452.46V452.45Z" fill="white"/>
<path d="M22.82 329C28.15 329 33.49 328.85 38.81 329.05C42.11 329.17 43.9 328.04 44.03 324.66C44.16 321.34 46.01 320.01 49.22 319.98C52.2 319.95 54.57 320.6 55.03 324.02C55.55 327.89 57.69 329.2 61.56 329.08C69.38 328.83 77.22 328.96 85.05 329.03C87.12 329.05 89.31 329.02 90.71 327.55C98.8 319.03 109.23 323.01 118.74 322.2C119.69 322.12 121.26 322.96 121.67 323.8C124.18 329 128.64 329.16 133.51 329.04C141 328.86 148.51 328.91 156 329.04C159.12 329.09 161.03 328.49 161.16 324.75C161.26 321.89 162.84 319.87 166.32 319.96C169.61 320.04 171.7 320.96 172.15 324.59C172.57 327.94 174.69 329.14 178.13 329.07C187.62 328.88 197.12 328.99 206.62 329.01C214.29 329.02 215.03 329.75 215.03 337.15C215.03 343.82 214.81 350.49 215.11 357.14C215.31 361.58 213.47 363.09 209.29 363.05C199.13 362.95 188.96 363.08 178.8 362.99C175.5 362.96 173.07 363.1 172.8 367.52C172.6 370.83 170.55 373.42 166.45 373.02C162.72 372.66 160.6 371.02 160.98 366.93C161.28 363.8 159.44 362.97 156.63 362.99C147.47 363.07 138.3 362.92 129.14 363.06C123.38 363.15 121.09 365.65 121.05 371.39C121.01 378.55 120.78 385.73 121.09 392.88C121.52 402.62 115.98 409.39 110.19 416.06C108.74 417.73 106.88 417.14 105.33 415.73C98.05 409.07 93.29 401.37 93.94 390.95C94.34 384.64 94.07 378.29 94 371.96C93.92 364.86 92.08 363.04 85.12 363.02C77.12 363 69.11 363.28 61.13 362.91C56.99 362.72 55.26 364.35 55.09 368.11C54.94 371.39 53.36 373.08 50.11 372.98C46.91 372.88 44.13 372.18 43.96 368.07C43.8 364.27 41.96 362.77 37.89 362.91C28.07 363.23 18.23 363.05 8.40004 363C0.920041 362.96 0.0399946 362.05 0.0399946 354.76C0.0399946 348.26 -5.42402e-06 341.76 0.0399946 335.26C0.0599946 331.16 1.58001 328.7 6.31001 328.93C11.79 329.21 17.3 328.99 22.8 328.99L22.82 329Z" fill="white"/>
<path d="M472.55 144.03C451 144.03 432.86 144.04 414.72 144C413.29 144 411.47 144.7 410.52 143.25C409.41 141.55 410.97 140.16 411.77 138.77C419.6 125.29 427.49 111.85 435.26 98.34C439.32 91.27 440.71 83.36 440.8 75.42C440.87 68.92 442.27 62.55 441.97 56.07C441.85 53.56 443.22 53.01 445.4 53.02C465.37 53.05 485.35 53.09 505.32 52.97C508.73 52.95 508.91 54.71 509.02 57.35C509.39 65.95 509.93 74.54 510.5 83.12C511.03 91.08 515.75 97.31 519.51 103.85C526.35 115.77 533.47 127.52 540.55 139.3C542.64 142.77 540.88 142.89 537.93 143.09C515.01 144.65 492.07 143.74 472.55 144.01V144.03Z" fill="white"/>
<path d="M390.97 453.85C390.97 440.2 390.97 426.55 390.97 412.9C390.98 405.68 392.63 403.99 399.63 403.98C408.95 403.97 418.28 404.21 427.6 403.91C436.19 403.63 438.01 407.45 437.56 414.68C437.1 422.03 437.8 429.19 437.88 436.44C438.05 451.89 438.19 467.34 437 482.77C436.61 487.84 438.81 492.75 437.3 498.06C436.1 502.27 433.74 503.91 429.92 503.95C419.6 504.06 409.28 504.08 398.96 503.95C393.74 503.88 390.99 500.73 390.98 495.32C390.96 481.5 390.98 467.68 390.98 453.87L390.97 453.85Z" fill="white"/>
<path d="M553.96 173.55C553.96 175.22 553.96 176.88 553.96 178.55C553.94 186.25 553.35 187.01 545.92 187.02C512.69 187.07 479.45 187.05 446.22 187.05C432.03 187.05 417.84 187.05 403.65 187.04C398.15 187.04 396.14 185.13 396 179.63C395.89 175.63 395.95 171.63 395.98 167.64C396.02 161.71 399.62 158.03 405.46 158.03C451.77 158.01 498.08 158.01 544.39 158.03C550.3 158.03 553.9 161.68 553.96 167.56C553.98 169.56 553.96 171.56 553.96 173.56V173.55Z" fill="white"/>
<path d="M476.01 0.0499767C490.15 0.0499767 504.29 0.0499767 518.43 0.0499767C526.27 0.0499767 529.5 2.75998 529.86 10.52C530.2 17.82 529.99 25.16 529.93 32.48C529.9 36.1 527.89 37.78 524.31 38.1C516.54 38.8 508.78 39.16 500.97 39.08C489.49 38.95 478.01 39.11 466.53 39.02C453.76 38.92 441.02 37.48 428.22 38.05C423.88 38.24 422.14 35.31 422.07 31.75C421.89 23.14 421.25 14.44 423.07 5.93998C423.91 2.02998 426.74 -0.0200318 431.08 0.00996816C446.05 0.119968 461.03 0.0499767 476 0.0499767H476.01Z" fill="white"/>
<path d="M77.02 499.12C76.27 488.26 82.36 479.89 87.32 471.14C91.72 463.38 97.38 456.41 101.47 448.42C104.91 441.71 108.57 441.57 113.09 447.53C122.52 459.96 130.97 472.98 137.24 487.36C143.03 500.63 138.21 514.87 127.45 524.36C116.14 534.34 99.31 533.55 88.83 524.73C81.06 518.19 76.3 509.79 77.02 499.11V499.12Z" fill="white"/>
<path d="M47.31 125.25C50.99 121.15 55.18 119.43 58.56 116.55C67.15 109.23 71.01 100.13 71.03 89.11C71.0367 83.0767 74 80.0601 79.92 80.0601C99.39 80.0601 118.86 80.1501 138.33 79.9801C142.09 79.9501 143.32 81.08 143.09 84.8C142.41 95.71 145.9 105.29 152.82 113.73C155.4 116.88 158.91 118.75 162.09 121.09C163.09 121.83 164.83 122.33 164.26 123.92C163.72 125.41 162.32 124.33 161.23 124.33C140.18 124.2 119.09 123.3 98.09 124.33C81.46 125.14 64.87 124.38 47.31 125.27V125.25Z" fill="white"/>
<path d="M333.63 474.99C321.15 474.99 308.66 475.02 296.18 474.98C290.86 474.96 289.04 473.13 289.01 467.76C288.96 458.6 288.97 449.45 289.01 440.29C289.03 435.19 291.03 433.05 296.28 433.03C321.42 432.96 346.55 433.03 371.69 432.96C374.95 432.96 376.07 434.35 376.04 437.49C375.95 448.64 375.89 459.8 376.08 470.95C376.14 474.45 374.64 475.07 371.6 475.04C358.95 474.92 346.3 474.99 333.65 474.99H333.63Z" fill="white"/>
<path d="M131.03 633.32C131.03 620.34 131.03 607.37 131.03 594.39C131.03 593.06 131.01 591.72 131.14 590.4C131.59 585.84 133.37 583.3 138.74 583.81C144.68 584.38 150.72 584.15 156.69 583.88C160.94 583.68 162.18 585.39 162.09 589.44C161.89 599.25 161.77 609.08 162.09 618.89C162.69 637.23 162.98 655.58 163.08 673.93C163.1 678.19 162.2 680.5 157.26 681.25C150.27 682.32 143.33 681.9 136.39 681.82C131.9 681.77 131.05 677.99 131.04 674.25C131 660.61 131.02 646.96 131.02 633.32H131.03Z" fill="white"/>
<path d="M108.67 65.06C91.35 65.06 74.04 65.15 56.73 64.96C54.3 64.93 51.26 67.08 49.72 65.12C47.92 62.83 48.68 59.24 49.21 56.42C49.96 52.44 50.1 48.5 50.02 44.53C49.96 41.39 51.14 40.02 54.41 40.03C89.71 40.09 125 40.07 160.3 40.03C162.64 40.03 164.09 40.5 164.06 43.29C163.99 49.59 164.91 55.81 165.82 62.03C166.37 65.75 163.63 65.04 161.62 65.04C145.14 65.08 128.65 65.06 112.17 65.06C111 65.06 109.84 65.06 108.67 65.06Z" fill="white"/>
<path d="M47.04 632.95C47.04 640.61 46.94 648.27 47.1 655.93C47.16 658.95 46.17 660.02 43.09 659.98C31.6 659.84 20.11 659.98 8.61998 659.9C2.65998 659.85 1.05996 658.09 1.03996 652.19C0.999958 640.07 1.03998 627.95 0.189982 615.83C-0.360018 607.96 1.74998 606.1 9.62998 606C20.79 605.86 31.95 606.04 43.1 605.9C46.18 605.86 47.16 606.95 47.1 609.97C46.94 617.63 47.05 625.29 47.05 632.95H47.04Z" fill="white"/>
<path d="M106.03 26.06C89.87 26.06 73.71 25.98 57.55 26.13C54.12 26.16 52.59 25.2 53.01 21.63C53.47 17.69 53.73 13.72 54.11 9.76998C54.25 8.24998 55.13 7.16997 56.64 7.16997C61.73 7.14997 66.73 4.87997 71.93 6.77997C73.41 7.32997 75.23 7.02997 76.89 7.02997C100.05 7.04997 123.2 7.04998 146.36 7.04998C147.36 7.04998 148.36 7.09997 149.36 7.03997C159.32 6.36997 160.02 7.01998 160.04 17.13C160.053 23.09 157.043 26.0666 151.01 26.06C136.02 26.06 121.02 26.06 106.03 26.06Z" fill="white"/>
<path d="M519.64 560.31C505.49 560.31 491.34 560.31 477.2 560.31C473.3 560.31 470.71 556.63 471.25 551.67C471.36 550.69 471.81 549.75 471.91 548.77C472.577 542.21 476.26 538.933 482.96 538.94C508.78 538.94 534.61 539.1 560.43 538.8C565.8 538.74 568.17 540.75 568.64 545.65C568.89 548.29 569.11 551 568.78 553.6C568.24 557.91 566.14 560.18 561.12 560.06C547.3 559.72 533.47 559.94 519.64 559.94C519.64 560.06 519.64 560.17 519.64 560.29V560.31Z" fill="white"/>
<path d="M61.02 631.32C61.02 621.16 61.08 611 60.98 600.84C60.95 597.63 61.75 595.86 65.43 595.87C68.94 595.87 70.5 597.3 69.99 600.65C69.27 605.39 71.59 606.03 75.69 606.02C88.58 605.99 86.92 604.07 87 617.42C87.07 629.41 87.03 641.4 87.02 653.39C87.02 657.737 84.76 659.913 80.24 659.92C78.91 659.92 77.57 660.02 76.24 659.91C71.74 659.51 68.19 659.97 68.92 666.03C69.2 668.36 67.29 669.07 65.19 668.91C62.37 668.69 61.04 667.02 61.02 664.3C60.98 656.31 61 648.31 61 640.32C61 637.32 61 634.32 61 631.33L61.02 631.32Z" fill="white"/>
<path d="M107.82 308.01C102.33 308.01 96.85 307.96 91.37 308.04C88.48 308.08 86.79 308.08 87.75 303.98C90.21 293.55 92.07 282.98 93.99 272.43C94.53 269.45 95.96 268.02 98.93 268.02C105.08 268.02 111.23 267.96 117.38 268.04C119.87 268.07 121.58 268.8 122.14 271.89C124.12 282.76 126.41 293.58 128.72 304.38C129.3 307.11 128.42 308.05 125.77 308.02C119.79 307.95 113.8 308 107.82 308.01Z" fill="white"/>
<path d="M475.4 219.04C465.25 219.04 455.09 218.95 444.94 219.08C440.71 219.14 438.98 217.43 438.92 213.17C438.78 202.02 438.67 202.21 449.75 201.97C459.86 201.75 470.06 201.4 480.08 201.59C489.04 201.76 497.88 200.33 506.81 200.93C510.09 201.15 511.09 202.12 511.02 205.33C510.67 221.71 513.15 218.73 497.86 219.04C494.03 219.12 490.2 219.05 486.38 219.04C482.72 219.04 479.06 219.04 475.4 219.04Z" fill="white"/>
<path d="M100.04 632.87C100.04 622.88 99.93 612.88 100.09 602.89C100.18 597.26 102.35 595.51 106.4 596.85C108.64 597.59 108.9 599.09 109.11 601.03C109.44 604.03 110.33 606.53 114.31 606.01C117.01 605.66 117.05 607.72 117.04 609.66C117.03 617.15 116.44 624.71 117.2 632.13C118.01 639.95 116.36 647.63 116.99 655.39C117.21 658.14 116.81 660.57 112.85 659.44C110.43 658.75 110.52 660.83 109.89 662.38C109.01 664.55 109.96 667.66 106.93 668.79C103.03 670.25 100.13 667.89 100.07 662.85C99.94 652.86 100.03 642.87 100.04 632.87Z" fill="white"/>
<path d="M508.99 241C511.03 240.64 511.95 242.11 512.92 243.81C520.17 256.46 527.53 269.04 534.79 281.68C541.4 293.17 548.07 304.63 554.41 316.27C555.97 319.15 560.51 322.84 555.25 325.93C550.33 328.82 549.05 323.38 547.51 320.71C536.41 301.49 525.77 282 514.63 262.81C511.63 257.65 508.84 252.38 505.81 247.24C503.74 243.74 505.15 241.03 508.99 241Z" fill="white"/>
<path d="M445.04 244.43C444.09 249.63 440.65 253.66 438.2 258.12C430.36 272.33 422.2 286.37 414.24 300.52C409.93 308.18 405.79 315.93 401.55 323.63C400.33 325.85 398.32 326.48 396 325.81C393.65 325.13 393.97 323.05 394 321.24C394.03 318.92 395.65 317.34 396.7 315.47C408.2 294.92 419.63 274.32 431.12 253.76C433.31 249.85 435.62 246 438.02 242.22C439.05 240.59 440.64 239.69 442.72 240.45C444.58 241.13 445.21 242.51 445.04 244.44V244.43Z" fill="white"/>
<path d="M479.96 287.61C479.96 299.44 479.88 311.27 480.01 323.1C480.04 325.83 479.36 328.38 478.77 330.94C478.33 332.82 476.85 334.07 474.7 333.92C472.21 333.75 471.95 331.94 471.95 329.98C471.95 322.31 472.05 314.65 471.94 306.99C471.67 289.28 471.3 271.57 470.97 253.86C470.95 252.69 470.97 251.53 470.97 250.36C470.94 246.87 472.59 244.25 476.05 244.22C479.5 244.19 479.91 247.4 479.93 250.12C480.01 260.62 479.97 271.12 479.97 281.61C479.97 283.61 479.97 285.61 479.97 287.61H479.96Z" fill="white"/>
</svg>
