<svg width="55" height="57" viewBox="0 0 55 57" fill="none" xmlns="http://www.w3.org/2000/svg">
<path d="M36.9146 11.4299C36.649 6.47478 39.1923 2.1188 44.5223 1.74983C47.5623 1.62639 48.5937 1.79506 51.7573 0.611609C52.298 0.409359 52.7962 0.120844 53.3734 0C53.9621 0.0210313 54.0874 0.389921 54.209 0.881875C53.9707 1.47322 53.5415 1.8052 53.1646 2.29305C50.1265 6.2265 50.6943 13.3032 44.3406 14.1138C42.2446 14.3813 39.743 13.5899 37.7977 12.8535C36.2977 13.1729 34.3229 14.1593 33.1323 15.1253C38.836 13.3823 40.6726 16.9951 43.0395 16.9138C43.7888 16.6463 44.9818 16.6126 44.7105 17.8046C44.5793 18.3812 42.3662 19.6901 41.8504 19.9396C37.9576 21.8223 33.6298 20.261 31.8207 16.2468C27.5399 20.3417 27.7407 25.3392 27.7463 30.6988L43.4854 30.6971C45.2626 30.6973 47.3249 30.4378 47.3154 33.0348C47.3062 35.4957 47.5291 37.0206 44.5434 36.9678L40.5998 52.9076C39.4929 57.3907 39.0629 56.8679 34.9687 56.8632L17.889 56.8665C14.9046 56.871 14.5602 56.8187 13.7596 53.8978L12.8307 50.4054C11.6679 46.0165 10.489 41.3913 9.49461 36.9678C6.90883 36.9996 6.58039 36.0456 6.68039 33.6617C6.72946 32.4903 6.46258 31.8193 7.60383 30.9899C8.33258 30.5684 9.53539 30.6949 10.3849 30.696L26.1095 30.6988C26.1132 26.304 26.322 22.0617 23.0404 18.529C22.1524 17.5731 21.8782 19.1915 21.0335 20.111C17.8865 23.5363 12.743 23.3156 9.37117 20.3104C8.89914 19.9543 8.61899 19.2742 9.12149 18.8045C9.53899 18.4142 10.6187 18.7398 11.2104 18.7032C13.0215 18.591 14.5038 16.8881 16.7726 16.6515C18.3543 16.4595 19.7271 16.9249 21.3007 16.9392C19.6241 15.8476 18.5623 15.2457 16.5798 14.7267C12.7977 15.767 8.62336 16.7779 5.73133 13.3759C3.51867 10.7729 3.42946 7.41462 1.72816 4.54025C1.24086 3.71691 0.756253 3.07984 0.155972 2.34353C-0.28134 1.80991 0.178488 0.482172 1.82052 1.50245C4.2468 3.01005 6.86883 3.40842 9.67414 3.46698C14.841 3.57486 17.6937 8.52259 17.349 13.2567C21.7107 14.3362 25.2449 17.5531 26.7913 21.7462C27.7312 17.5531 31.111 13.8948 34.9379 12.1163C35.5974 11.8098 36.192 11.541 36.9146 11.4299ZM50.954 2.65197C48.2563 3.38992 47.4296 3.21967 44.833 3.36589C40.744 3.59617 39.017 6.2015 38.5462 9.87588C40.5418 8.06666 42.8127 6.72947 45.4188 5.92463C48.2551 5.04869 47.914 6.78478 47.0076 7.15603C44.5713 7.98806 40.5801 9.45588 39.252 11.6107C43.2288 13.2843 46.9187 12.8078 48.7109 8.37869C49.3716 6.74556 49.7159 5.02697 50.563 3.46398C50.7098 3.19333 50.8745 2.98102 51.0026 2.69808L50.9779 2.65697L50.954 2.65197ZM3.3268 4.02711C3.72977 5.08353 4.3118 6.11463 4.66446 7.18056C6.76118 13.5154 8.39164 15.2078 15.2118 13.3942C12.8973 11.0535 10.6237 9.92275 7.60383 8.78259L7.55071 8.76634C6.52446 8.44509 6.65492 6.7015 8.43461 7.32947C11.0632 8.25681 13.5005 9.5801 15.6002 11.4299C15.3368 9.59994 14.6407 7.4215 13.0857 6.29587C11.066 4.83384 8.91867 5.24431 6.62117 4.90306C5.31914 4.70963 4.53821 4.42963 3.3268 4.02711ZM35.7371 16.3767C35.138 16.4067 34.5095 16.4476 33.9301 16.6129C35.3737 18.6138 37.2312 19.391 39.6476 18.9187C40.3487 18.7396 40.7799 18.5643 41.436 18.2876C39.431 17.3613 38.1677 16.2062 35.7371 16.3767ZM17.1251 18.2876C14.8646 18.5009 14.1674 19.7585 12.0982 20.2146C13.2327 20.737 13.9468 20.9082 15.2118 20.9488C17.287 20.9379 18.8877 20.2042 20.1757 18.5578C19.1595 18.4785 18.1237 18.1953 17.1251 18.2876ZM9.31243 32.3515C9.0743 32.3559 8.52789 32.332 8.36446 32.4531C8.29258 32.7396 8.27446 34.9495 8.3893 35.2288C8.66368 35.4406 12.7315 35.3646 13.3613 35.3646L44.6912 35.3635C44.9862 35.3529 45.3188 35.3842 45.5468 35.2156C45.7641 34.8706 45.7331 32.6763 45.5237 32.4238C45.0773 32.3009 43.0296 32.3509 42.4396 32.351L9.31243 32.3515ZM11.1321 36.9678C12.1681 41.6849 13.4526 46.5606 14.7234 51.2418L15.2971 53.4054C15.9173 55.829 15.7476 55.2165 18.5257 55.217L37.314 55.2129C37.8623 55.1709 38.3043 55.2206 38.497 54.5915C38.7996 53.6032 39.0038 52.5468 39.252 51.5446C39.9951 48.7029 40.6932 45.7807 41.4026 42.9282L42.2901 39.2893C42.4829 38.5159 42.7032 37.7463 42.8707 36.9678H11.1321Z" fill="white"/>
<path d="M11.1321 36.9678C12.1681 41.6849 13.4526 46.5606 14.7234 51.2418L15.2971 53.4054C15.9173 55.829 15.7476 55.2165 18.5257 55.217L37.314 55.2129C37.8623 55.1709 38.3043 55.2206 38.497 54.5915C38.7996 53.6032 39.0038 52.5468 39.252 51.5446C39.9951 48.7029 40.6932 45.7807 41.4026 42.9282L42.2901 39.2893C42.4829 38.5159 42.7032 37.7463 42.8707 36.9678H11.1321Z" fill="white"/>
<path d="M9.31243 32.3515C9.0743 32.3559 8.52789 32.332 8.36446 32.4531C8.29258 32.7396 8.27446 34.9495 8.3893 35.2288C8.66368 35.4406 12.7315 35.3646 13.3613 35.3646L44.6912 35.3635C44.9862 35.3529 45.3188 35.3842 45.5468 35.2156C45.7641 34.8706 45.7331 32.6763 45.5237 32.4238C45.0773 32.3009 43.0296 32.3509 42.4396 32.351L9.31243 32.3515Z" fill="white"/>
</svg>
