<svg width="52" height="58" viewBox="0 0 52 58" fill="none" xmlns="http://www.w3.org/2000/svg">
<path d="M16.9548 3.24682C20.2783 1.37808 21.722 0.36363 25.8822 0.0212393C29.9264 -0.195245 34.0103 1.25383 37.0767 3.8808C37.437 4.18944 37.9234 4.50429 37.8892 5.05525C37.8198 6.16932 36.3453 5.64651 35.723 5.54463C31.9102 4.75041 27.6058 4.96666 24.223 7.04822C23.7367 7.34791 22.2277 10.1731 22.1484 10.7846C21.9763 12.1123 24.9344 13.7162 23.3516 14.8856C24.6761 17.0009 26.6388 19.3731 28.1448 21.4088L30.9414 25.2524C32.1772 23.8521 33.8092 22.4668 35.1556 21.1118L39.3388 16.9556C40.0094 16.2879 41.1488 15.0751 41.8488 14.5207C40.7475 13.1973 38.5706 12.0295 39.2384 10.0828C39.5594 9.14713 40.3381 8.54338 41.3341 8.49119C42.627 8.42322 43.1341 9.27682 43.9555 10.0907L50.4608 16.5526C51.1498 17.239 51.7925 17.7092 51.7942 18.7881C51.7963 20.052 50.7753 21.0388 49.5223 21.0496C47.9795 21.0629 46.2803 18.8842 45.1852 17.7895C44.7363 18.2907 44.0338 18.9353 43.5347 19.4287L34.6494 28.2707C34.3631 28.5576 34.0725 28.8378 33.7738 29.1117C34.4519 30.0935 36.0517 32.5881 37.1247 33.0037C38.3797 33.4899 39.0198 34.6199 39.7834 35.6563L50.0978 49.5903C50.2938 49.8545 50.5248 50.1953 50.7264 50.442C53.4013 53.7165 50.1745 58.3109 46.2097 57.6771C44.5769 57.4156 43.9844 56.381 43.0836 55.1571L38.157 48.5389C37.7325 47.9464 37.2613 47.3504 36.8253 46.761L32.1052 40.4431C31.3022 39.3812 30.7059 38.5804 30.6513 37.1846C30.6081 36.0837 29.8888 35.3285 29.2263 34.5081C28.8753 34.7962 27.1192 36.2909 27.1177 36.6146C27.1155 37.0931 23.9348 41.8078 23.528 42.4498C22.3325 44.3357 22.1847 44.5489 20.6097 46.141L11.4227 55.3612C10.6058 56.1845 9.83454 57.4704 8.595 57.4165C7.1411 57.3707 5.14907 54.6848 4.01407 53.6521C1.82204 51.6578 4.06407 49.9624 5.42188 48.6079L13.4363 40.5845C14.9186 39.1043 15.9394 38.1253 17.6272 36.9246L21.32 34.3378C22.9991 33.169 24.7067 31.6649 26.1747 30.2434C25.115 28.961 24.1128 27.4662 23.1281 26.1129L17.867 18.9387C16.0744 20.4149 15.1695 16.8367 13.5788 16.5421C12.5023 16.3428 10.9019 17.6578 10.0141 18.2418C10.9089 19.3392 10.7123 19.6979 9.47907 20.4867C8.8736 20.8738 8.29485 21.259 7.68969 21.6403C6.2361 22.5571 6.21047 23.0357 4.95579 21.3379L0.461098 15.3084C-0.115277 14.5301 -0.253027 14.0176 0.644895 13.4018C1.57157 12.7663 2.49407 12.1142 3.41094 11.4621C4.35563 10.7903 4.79907 10.7187 5.44969 11.6796C6.35891 11.0887 7.26547 10.4728 8.16735 9.86885C7.65672 9.14338 7.28313 8.49213 8.20157 7.87744C10.6609 6.23151 13.0453 4.32777 15.5527 2.76615C15.8248 2.59657 16.6502 3.09733 16.9548 3.24682ZM25.7108 1.65757C23.3859 1.97075 21.5128 2.40925 19.4583 3.62991C17.9263 4.5401 17.6913 5.23525 15.8319 4.50835C13.7559 5.97619 11.6331 7.54666 9.54719 8.97416C9.95578 9.68322 10.3795 10.3313 9.52328 10.9013C8.295 11.719 7.07016 12.6388 5.79969 13.3832C5.12032 13.7812 4.73844 13.3718 4.31204 12.8671C3.57719 13.3338 2.63157 13.9976 1.93157 14.5207C2.46907 15.3218 3.15797 16.1979 3.74282 16.974L6.38329 20.5199C7.14579 20.0853 7.88328 19.5932 8.61 19.1018C7.85485 18.0468 7.76516 17.691 8.91922 16.9874L10.5142 15.9599C14.0302 13.7271 14.6609 15.0762 17.1031 17.4835C18.7159 16.4501 20.3753 14.9576 21.9772 13.9284C20.9763 12.4135 19.957 11.3267 20.9091 9.35682C21.4022 8.33682 22.4738 6.1901 23.4559 5.58619C26.5545 3.68105 30.5238 3.13855 34.0548 3.66963C31.857 2.17765 28.2803 1.51661 25.7108 1.65757ZM41.2566 10.0973C40.1537 10.7682 41.032 11.3643 41.6198 11.9553L47.0034 17.3223C47.6022 17.9149 48.8719 19.5678 49.6592 19.4431C49.9081 19.334 50.3063 18.9979 50.185 18.6195C50.1017 18.3593 42.683 11.0959 41.8503 10.2759C41.6414 10.0703 41.5391 10.0826 41.2566 10.0973ZM42.9236 15.6287L33.6134 24.9412C33.0567 25.4995 32.4561 26.0451 31.91 26.6006C32.067 26.8121 32.6233 27.599 32.8159 27.6988L32.9191 27.6506C33.8163 26.8212 34.7728 25.8035 35.6583 24.9268L41.582 19.0615C42.3964 18.2554 43.1569 17.4254 44.0055 16.6484C43.8309 16.4724 43.0966 15.7029 42.9236 15.6287ZM21.9772 15.9471C21.0633 16.601 20.0642 17.2996 19.178 17.9876L31.9692 35.4392C32.3038 35.8992 32.2417 36.6195 32.2672 37.1704C32.3153 38.2084 32.9497 38.8859 33.5484 39.6813L37.5884 45.0565C40.1986 48.509 42.7305 52.024 45.3766 55.4478C45.7905 55.9834 46.6439 56.0999 47.275 56.0695C49.3594 55.7846 50.9338 53.6068 49.6095 51.6571C49.1195 50.9393 48.5961 50.252 48.08 49.5571L39.5319 38.0451C38.7981 37.067 38.1295 36.0062 37.3202 35.0888C36.7183 34.4067 35.6613 34.2103 35.0406 33.5495C34.6252 33.0735 34.1986 32.4306 33.8172 31.9171L24.0747 18.6773C23.8239 18.3284 22.1788 16.0457 21.9772 15.9471ZM27.0869 31.6243C26.2048 32.4632 25.3648 33.2468 24.4573 34.0568C24.9334 34.377 25.3938 34.6662 25.8822 34.9679L26.1747 35.1363C26.8098 34.5196 27.6277 33.7545 28.2139 33.1099C27.9506 32.7734 27.3403 31.8548 27.0869 31.6243ZM23.0483 35.1363C20.257 36.9646 17.7034 38.6706 15.3517 41.0059L7.385 48.9774C6.59969 49.7598 5.80516 50.5364 5.03829 51.3371C4.48485 51.9153 5.01282 52.3562 5.46313 52.8023C6.22485 53.5568 7.00079 54.2996 7.7386 55.0762C7.96 55.301 8.3125 55.7078 8.59625 55.7976C8.86188 55.7412 11.8855 52.5646 12.2992 52.1465L19.3428 45.0906C19.8113 44.6159 20.8164 43.7157 21.1509 43.1928C22.5234 41.047 23.8848 38.6688 25.3427 36.5937C24.6498 36.1296 23.7781 35.5207 23.0483 35.1363Z" fill="white"/>
</svg>
