<svg width="585" height="497" viewBox="0 0 585 497" fill="none" xmlns="http://www.w3.org/2000/svg">
<path d="M187.71 216.37C181.71 209.99 177.93 203.1 175.85 195.36C170.42 175.13 174.18 156.06 184.14 138.18C193.43 121.5 206.35 108.51 225.04 102.42C236.81 98.59 248.48 98.83 260.44 104.23C257.93 98.44 256.04 92.96 255.2 87.13C252.69 69.85 256.14 53.65 264.5 38.58C273.77 21.88 286.46 8.73998 305.26 2.74998C316.82 -0.930015 328.24 -0.540024 338.86 5.45998C358.11 16.34 377.14 27.61 396.22 38.79C435.48 61.8 474.71 84.88 513.96 107.9C519.97 111.42 526.08 114.77 532.07 118.31C544.63 125.73 550.33 137.27 551.41 151.36C552.63 167.21 547.96 181.75 540.67 196.01C545.76 195.58 550.52 195.04 555.29 195.99C572.6 199.41 581.08 211.05 583.59 226.61C589.13 260.93 562.99 302.09 531.2 313.87C511.61 321.13 491.02 312.58 484.57 292.79C483.91 290.77 483.4 288.69 482.86 286.81C470.78 318.36 452.75 343.92 416.89 351.51C425.42 357 434.27 362.68 443.1 368.38C445.71 370.07 448.31 371.77 450.88 373.53C452.25 374.47 452.84 375.84 452.27 377.43C451.81 378.71 451.16 379.76 449.44 379.97C433.16 381.97 417.77 387.04 402.95 393.93C382.82 403.29 365.23 416.52 347.87 430.13C328.25 445.5 309.78 462.35 289.04 476.26C276.11 484.93 262.58 492.55 247.28 496.47C244.08 497.29 241.63 496.72 239.02 494.65C198.25 462.41 157.7 429.89 116.54 398.13C78.75 368.97 41.08 339.65 3.33003 310.43C1.05003 308.67 -0.359968 306.74 0.520032 303.75C1.43003 300.68 3.96003 300.63 6.52003 300.46C19.35 299.63 31.3 295.53 42.78 290.1C66.21 279.02 87.96 264.96 109.92 251.31C125.23 241.79 140.6 232.36 156.69 224.21C166.11 219.44 176.19 216.42 187.67 216.34L187.71 216.37ZM492.86 235.89C487.79 236.63 482.74 237.52 477.12 237.25C481.75 243 483.67 249.24 485.19 256.5C487.42 249 490 242.49 493.5 236.38C493.5 236.08 493.51 235.78 493.52 235.48C493.3 235.62 493.08 235.76 492.86 235.89ZM19.96 309.47C40.94 325.7 61.44 341.51 81.87 357.38C113.17 381.69 144.5 405.95 175.67 430.41C198.13 448.03 220.41 465.9 242.66 483.8C244.96 485.65 246.73 485.76 249.35 484.86C264.08 479.77 277.28 471.9 289.78 462.81C309.75 448.28 328.39 432.05 347.77 416.77C365.72 402.62 384.58 389.99 405.69 380.98C413.59 377.61 421.78 375.09 430.46 372.85C429.8 372.25 429.57 371.99 429.29 371.81C376.02 338.06 322.77 304.29 269.47 270.6C249.07 257.7 228.44 245.15 208.16 232.06C202.08 228.13 195.78 226.27 188.81 226.63C176.66 227.26 165.62 231.38 155.02 237.29C135.56 248.13 116.9 260.28 97.75 271.6C81.18 281.39 65.11 292.05 47.5 300C38.81 303.93 29.85 307.07 19.96 309.49V309.47ZM441.78 224.49C441.81 223.63 441.3 223.5 440.89 223.25C427.35 215.14 413.83 206.99 400.27 198.92C354.31 171.59 308.22 144.5 262.44 116.87C246.47 107.24 226.79 109.5 213.23 120.23C197.22 132.9 187.43 149.28 184.67 169.63C182.4 186.36 186.65 200.94 199.24 212.66C205.22 218.22 212.44 221.97 219.25 226.3C264.82 255.25 310.43 284.12 356.04 313.01C364.08 318.1 372.15 323.16 381.05 328.76C376.49 317.76 376.64 307.23 378.6 296.78C382.72 274.85 393.32 256.33 409.35 240.92C418.44 232.18 429.01 226.23 441.79 224.48L441.78 224.49ZM503.21 114.15C503.05 113.46 502.5 113.22 501.95 112.9C488.3 104.96 474.65 97.04 461.04 89.04C421.39 65.74 381.76 42.41 342.11 19.11C337.83 16.6 333.73 13.67 328.78 12.57C315.81 9.70999 303.93 12.62 293.59 20.57C274.21 35.48 264 55.09 264.93 79.9C265.43 93.27 270.52 104.65 281.08 112.98C287.9 118.36 295.14 123.3 302.59 127.77C346.61 154.2 390.75 180.44 434.84 206.75C437.87 208.56 440.9 210.38 444.23 212.38C432.93 169.62 466.05 122.03 503.22 114.15H503.21ZM475.35 266.19C475.21 263.73 475.19 261.35 474.94 258.99C473.74 247.93 466.77 238.35 456.75 235.61C447.42 233.06 438.2 234.15 430.08 239.08C402.69 255.71 387.85 279.93 388.05 312.37C388.18 332.62 404.59 344.44 424.08 338.87C436.77 335.25 446.57 327.39 454.81 317.42C467.13 302.52 474.75 285.71 475.35 266.18V266.19ZM452.69 191.14C452.9 195.1 452.75 198.4 453.3 201.57C455.39 213.59 461.18 224.14 476.58 226.45C486 227.87 494.66 225.29 502.78 221.07C515.68 214.35 524.84 203.71 531.58 191.04C538.72 177.61 542.71 163.44 540.23 147.99C538.36 136.33 530.37 127.54 518.76 124.96C508.09 122.59 498.16 125.22 489.13 130.8C466.5 144.8 455.16 165.68 452.69 191.14ZM573.95 236.96C573.95 235.34 574.01 233.71 573.95 232.09C573.42 218.81 565.25 208.46 552.68 206.38C543.6 204.88 535.08 207.74 527.7 213.04C514.36 222.62 504.06 234.86 497.98 250.22C493.29 262.07 490.91 274.39 493.75 287.14C496.73 300.52 510.54 308.74 523.89 305.37C535.56 302.43 544.76 295.52 552.66 286.87C565.54 272.76 573.54 256.44 573.96 236.97L573.95 236.96Z" fill="white"/>
<path d="M19.96 309.47C29.85 307.04 38.81 303.9 47.5 299.98C65.11 292.02 81.19 281.37 97.75 271.58C116.91 260.26 135.57 248.11 155.02 237.27C165.62 231.36 176.66 227.24 188.81 226.61C195.79 226.25 202.08 228.12 208.16 232.04C228.44 245.13 249.07 257.68 269.47 270.58C322.77 304.28 376.03 338.05 429.29 371.79C429.57 371.97 429.8 372.24 430.46 372.83C421.78 375.07 413.59 377.59 405.69 380.96C384.58 389.97 365.71 402.6 347.77 416.75C328.39 432.03 309.75 448.26 289.78 462.79C277.28 471.89 264.07 479.75 249.35 484.84C246.73 485.75 244.95 485.63 242.66 483.78C220.41 465.88 198.14 448.02 175.67 430.39C144.49 405.93 113.16 381.67 81.87 357.36C61.43 341.49 40.94 325.68 19.96 309.45V309.47Z" fill="white"/>
<path d="M493.5 236.38C490 242.49 487.42 249 485.19 256.5C483.66 249.25 481.75 243 477.12 237.25C482.74 237.51 487.79 236.63 492.86 235.89C493.07 236.05 493.29 236.21 493.5 236.37V236.38Z" fill="#0F0F0F"/>
<path d="M492.86 235.89C493.08 235.75 493.3 235.61 493.52 235.48C493.52 235.78 493.51 236.08 493.5 236.38C493.29 236.22 493.07 236.06 492.86 235.9V235.89Z" fill="#0F0F0F"/>
<path d="M459.2 280.08C457.91 293.71 450.61 308.01 434.44 316.55C421.78 323.24 409.06 317.42 406.95 304.26C406.1 298.95 406.62 293.57 408.24 288.37C412.05 276.13 419 266.29 430.41 260.04C435.44 257.28 440.97 256.02 446.62 257.35C455.21 259.37 459.43 265.85 459.2 280.08ZM449.5 280.31C449.53 271.09 446.54 267.51 440.73 267.6C438.48 267.63 436.3 268.27 434.34 269.35C423.2 275.54 417.72 285.46 416.59 297.76C415.82 306.16 422.86 310.89 430.4 307.03C442.12 301.03 447.95 290.81 449.5 280.31Z" fill="#F0F0F0"/>
<path d="M469.72 186.33C469.74 169.64 482.24 151.29 497.36 145.76C513.58 139.83 526.89 149.6 525.04 166.73C523.33 182.58 515.34 194.95 501.53 203.24C496.12 206.49 490.11 207.62 483.93 206.53C474.65 204.9 469.71 197.66 469.72 186.32V186.33ZM480.21 184.87C480.24 194.09 485.98 197.98 494.76 195.14C506.32 191.4 514.92 176.25 515.17 165.85C515.39 156.94 508.44 152.49 499.94 155.58C489.44 159.39 480.18 173.14 480.21 184.87Z" fill="#F0F0F0"/>
<path d="M508.37 267.94C509.45 252.18 516.95 239.43 530.48 230.29C537.06 225.85 544.33 224.1 551.47 228.8C558.61 233.5 559.92 241.12 558.72 248.77C556.53 262.76 549.58 274.19 538.06 282.62C534.18 285.46 529.73 287.02 524.92 287.45C516.67 288.2 509.78 282.42 508.74 273.83C508.53 272.1 508.51 270.34 508.37 267.93V267.94ZM518.32 266.69C518.37 267.81 518.35 268.94 518.48 270.05C519.08 275.27 522.65 277.66 527.7 276.21C528.88 275.87 530.11 275.49 531.14 274.85C541.29 268.5 547.39 259.39 549.14 247.53C549.65 244.07 548.74 240.83 545.77 238.57C542.54 236.12 539.12 236.77 535.97 238.59C525.2 244.84 519.65 254.45 518.32 266.68V266.69Z" fill="#F0F0F0"/>
</svg>
