<svg width="695" height="800" viewBox="0 0 695 800" fill="none" xmlns="http://www.w3.org/2000/svg">
<path d="M683.857 337.589L677.947 313.935L655.941 331.742C648.04 309.782 639.782 296.547 635.987 291.151L631.773 285.148L624.479 284.588C622.022 284.401 619.129 284.277 615.832 284.277C610.327 284.277 602.722 284.681 593.53 285.848L603.235 256.159L576.096 262.768C532.068 273.468 463.546 300.762 386.143 370.793C359.673 398.974 336.143 431.026 316.221 466.065C296.252 501.104 280.7 537.698 269.673 576.096C269.471 577.092 269.378 577.963 269.191 578.943C261.96 577.558 255.117 574.572 249.362 570.187C246.672 569.285 242.255 568.056 239.642 567.325C199.642 556.205 116.361 533.048 119.331 379.813L119.471 377.325C123.655 335.614 133.002 293.981 147.216 253.53C157.449 224.339 170.047 196.423 184.681 170.093C147.885 148.352 120.746 142.053 111.571 140.451C106.998 139.673 102.317 140.964 98.8025 143.981C93.3281 148.663 62.4106 177.17 36.4386 237.465L45.1477 236.485C71.2442 235.988 95.8009 232.815 119.627 226.936C127.9 224.837 136.392 229.953 138.445 238.305C140.498 246.641 135.412 255.07 127.076 257.123C100.98 263.561 74.0902 267.061 47.154 267.496L24.0435 270.109C12.1151 306.268 2.75272 350.918 0 405.443C1.21306 444.09 7.24728 483.406 17.9316 522.255C28.5692 561.12 43.4526 597.994 62.8149 632.986C100.373 689.502 139.409 716.967 182.177 716.967C202.053 716.967 218.865 711.12 232.364 706.439C239.938 703.795 247.341 700.762 251.804 701.369C256.33 702.162 261.042 700.886 264.572 697.854C266.221 696.454 270.84 695.163 275.91 693.997C291.4 725.49 318.149 738.507 337.605 747.932C344.479 751.26 353.048 755.397 354.93 758.103L359.145 764.09L366.439 764.65C369.72 764.914 377.652 770.156 384.028 774.355C400.404 785.179 422.815 799.984 454.199 799.984C488.834 799.984 525.552 782.022 567.372 744.137C593.857 715.941 617.387 683.888 637.294 648.849C657.263 613.826 672.815 577.232 683.841 538.818C702.426 446.812 694.106 378.616 683.857 337.589ZM614.557 315.381C618.631 322.457 624.666 334.666 630.155 352.597L550.669 416.921L582.644 319.114C596.641 316.252 607.387 315.459 614.557 315.381ZM469.565 424.168C468.523 424.806 365.568 488.647 359.362 612.519C358.958 620.84 352.084 627.294 343.841 627.294C343.577 627.294 343.313 627.294 343.048 627.278C334.479 626.843 327.869 619.549 328.305 610.964C335.365 470.156 448.694 400.42 453.515 397.527C460.855 393.079 470.389 395.459 474.837 402.815C479.269 410.171 476.905 419.736 469.565 424.168Z" fill="#CCD1D6"/>
<path d="M150.42 380.451C147.916 509.565 210.559 526.983 247.978 537.387C248.413 537.512 248.864 537.636 249.315 537.761C254.385 523.406 260.14 509.207 266.485 495.226C279.191 394.666 302.052 300.14 334.727 213.841C337.76 205.816 346.734 201.773 354.774 204.806C362.815 207.854 366.858 216.827 363.81 224.868C341.073 284.93 323.219 349.176 310.342 416.75C326.454 392.675 344.152 370.062 363.468 349.518L365.272 347.745C437.807 282.131 503.872 251.602 551.057 237.403C546.547 108.616 500.404 38.4448 479.906 13.4059L472.659 23.4992C451.384 49.2535 432.535 78.6936 410.886 119.751C408.102 125.039 402.706 128.056 397.107 128.056C394.665 128.056 392.192 127.481 389.875 126.268C382.286 122.255 379.362 112.862 383.374 105.257C406.049 62.2084 425.987 31.1353 448.024 4.51011L451.259 0C423.219 4.8367 326.438 30.1711 228.336 157.636C207.309 190.124 189.875 225.879 176.547 263.888C163.172 301.913 154.401 340.7 150.42 380.451Z" fill="#CCD1D6"/>
</svg>
