<svg width="34" height="61" viewBox="0 0 34 61" fill="none" xmlns="http://www.w3.org/2000/svg">
<path d="M16.0444 19.2552C15.7585 18.8601 15.3088 18.3587 14.9843 17.9681C11.9846 14.3579 11.0555 9.52149 13.471 5.28088C14.1926 4.01399 15.2107 3.00412 15.8483 1.71677C16.1619 1.08343 15.7497 0.433165 16.5461 0.00563378C16.983 -0.0172256 17.0704 0.0183683 17.3808 0.322853C17.5821 0.839837 17.4435 1.30293 17.7918 1.95198C18.1918 2.69717 18.6565 3.21312 19.1588 3.88413C22.2043 7.9529 22.1683 13.0752 19.1797 17.1977C18.6404 17.9417 18.0401 18.5429 17.4921 19.2552V26.4276C18.1077 25.5279 18.5413 24.959 19.2783 24.1599C18.2443 21.6067 20.3011 18.9613 22.0205 17.1781C24.5508 14.5543 28.2158 13.0215 31.8477 12.9165C32.8419 12.8306 33.1858 13.7226 32.4454 14.371C31.1829 15.4765 31.2891 16.6924 30.9071 18.1804C29.9886 21.7581 24.0246 29.5868 20.1575 25.302C19.3133 26.197 17.4122 28.7681 17.4852 30.0437C17.5182 30.6196 17.4908 31.2607 17.491 31.8357L17.4921 38.4813C18.2927 37.384 18.7254 36.817 19.7619 35.8996C18.9621 34.3863 18.7119 33.7131 19.641 32.0971C21.4786 28.9004 24.9804 26.1159 28.5858 25.1662C29.4658 24.9343 32.6643 24.4467 33.2999 24.8518C34.1458 25.3912 33.0522 26.3079 32.6777 26.7346C31.8877 27.6346 31.7508 28.6001 31.4583 29.7292C30.6566 32.8223 28.736 34.8157 26.214 36.6426C24.2483 38.0665 22.8286 38.6213 20.6644 37.0099C19.4683 37.9715 18.0524 40.0379 17.5747 41.5015C17.4336 41.934 17.491 43.9879 17.4908 44.5426L17.4921 50.3257C18.0815 49.4213 18.5311 48.8948 19.2783 48.1409C18.4933 46.494 18.8441 45.1942 19.6458 43.6446C23.848 35.4777 36.9146 34.5731 32.2736 38.3415C31.4444 39.1965 31.3726 40.4562 31.0402 41.5126C29.9396 45.0107 27.1455 48.5695 23.6754 49.9237C22.5813 50.3506 21.114 49.7831 20.1575 49.2496C16.5144 53.3159 17.6797 55.5249 17.4921 60.4345C17.3443 60.7827 17.1047 60.9659 16.7085 60.9682C15.8236 60.9732 16.039 59.3215 16.0452 58.7013C16.0852 54.7287 16.4149 52.3618 13.3946 49.2496C8.96333 52.1321 4.41661 46.2467 2.97286 42.6052C2.51255 41.4443 2.33239 40.3421 1.86708 39.1601C1.50505 38.2406 -1.44495 36.4527 1.75614 36.3751C6.91536 36.2507 11.8622 39.4306 14.099 44.0426C14.8716 45.636 14.8904 46.5393 14.3066 48.1409C14.9291 48.6563 15.6755 49.6045 16.0444 50.3257C16.0452 47.6535 16.0483 44.9627 16.0449 42.2924C16.0429 40.6291 14.1457 38.1534 12.9724 37.0099C11.2083 38.7043 9.21505 38.0248 7.47864 36.8581C4.6188 34.9365 2.97646 32.3199 2.05552 29.0843C1.78724 28.1417 1.51333 27.446 0.866925 26.6934C-0.216513 25.4318 -0.581044 24.8067 1.54958 24.7935C6.9763 24.7112 11.9499 28.1943 14.0833 33.1226C14.5222 34.1367 14.3933 34.8996 13.9604 35.8996C14.6315 36.7907 15.3674 37.4995 16.0444 38.4813L16.046 32.9937C16.0465 29.8343 16.1224 27.9709 13.3946 25.5477C9.37708 28.3798 5.77161 24.1204 3.80427 20.811C2.84833 19.2027 2.76614 17.5606 2.17052 15.8685C1.93114 15.1888 -0.895732 12.8923 1.96505 12.9759C6.66333 13.1132 11.1547 15.6373 13.5004 19.7484C14.5363 21.5638 14.824 22.3712 14.3066 24.2773C14.9415 24.9867 15.4491 25.7623 16.0444 26.4276V19.2552ZM16.811 3.15442C13.008 7.02415 12.3596 12.2015 15.7818 16.6573C15.9451 16.8699 16.6233 17.7968 16.811 17.8551C20.1788 13.7548 21.559 9.32728 17.9135 4.63646C17.5868 4.21612 17.0829 3.60673 16.811 3.15442ZM3.12411 14.5115C3.89474 16.0992 3.88677 17.1538 4.45068 18.6448C5.39646 21.1451 9.23989 26.9971 12.4518 24.4588C13.2824 23.3507 13.3038 22.8845 12.796 21.614C11.1426 17.4774 7.35974 15.2259 3.12411 14.5115ZM30.3727 14.5115C27.1515 14.9442 23.9824 16.7771 22.034 19.3735C20.7555 21.0771 19.6044 22.7113 21.2788 24.4588C23.1898 26.3169 25.4007 23.968 26.823 22.4568C26.8285 22.4509 26.8341 22.445 26.8396 22.4392C28.9983 20.1457 29.2479 18.6981 29.9207 15.9365C30.0651 15.344 30.233 15.0782 30.4186 14.5532L30.3727 14.5115ZM31.1616 26.2873C27.9933 26.2888 24.9891 28.1777 22.8005 30.3642C21.1457 32.0176 19.5007 33.7237 21.4318 35.7043C21.9968 36.2987 23.0301 36.8879 23.8374 36.4281C26.5627 34.8759 29.1176 32.7443 30.0136 29.6106C30.3874 28.2459 30.3229 27.5599 31.1888 26.3273L31.166 26.2882L31.1616 26.2873ZM2.42646 26.2873C3.31239 27.7545 3.37818 28.8227 3.97724 30.3643C4.82755 32.5531 9.54818 38.6962 12.128 35.8996C14.0294 34.2657 11.7902 31.6407 10.5499 30.2415C8.58411 28.024 5.39396 26.4335 2.42646 26.2873ZM30.7211 37.8832C28.0541 37.8982 24.643 39.7276 22.8697 41.6324C21.5257 43.076 19.0721 46.1817 21.0027 48.0198C24.2707 50.5604 28.7194 43.9304 29.5722 41.3251C29.9125 40.2856 30.1126 38.7909 30.7865 37.9342L30.7854 37.8745L30.7211 37.8832ZM2.8063 37.8832C3.67677 39.4134 3.77068 40.6688 4.39755 42.2302C5.38677 44.6621 9.54489 50.4652 12.6321 48.0198C13.0779 47.4517 13.4219 46.8949 13.2847 46.1387C12.4754 41.6773 7.14677 38.2412 2.8063 37.8832Z" fill="white"/>
<path d="M2.42646 26.2873C3.31239 27.7545 3.37818 28.8227 3.97724 30.3643C4.82755 32.5531 9.54818 38.6962 12.128 35.8996C14.0294 34.2657 11.7902 31.6407 10.5499 30.2415C8.58411 28.024 5.39396 26.4335 2.42646 26.2873Z" fill="white"/>
<path d="M3.12411 14.5115C3.89474 16.0992 3.88677 17.1538 4.45068 18.6448C5.39646 21.1451 9.23989 26.9971 12.4518 24.4588C13.2824 23.3507 13.3038 22.8845 12.796 21.614C11.1426 17.4774 7.35974 15.2259 3.12411 14.5115Z" fill="white"/>
<path d="M16.811 3.15442C13.008 7.02415 12.3596 12.2015 15.7818 16.6573C15.9451 16.8699 16.6233 17.7968 16.811 17.8551C20.1788 13.7548 21.559 9.32728 17.9135 4.63646C17.5868 4.21612 17.0829 3.60673 16.811 3.15442Z" fill="white"/>
<path d="M30.3727 14.5115C27.1515 14.9442 23.9824 16.7771 22.034 19.3735C20.7555 21.0771 19.6044 22.7113 21.2788 24.4588C23.1898 26.3169 25.4007 23.968 26.823 22.4568L26.8396 22.4392C28.9983 20.1457 29.2479 18.6981 29.9207 15.9365C30.0651 15.344 30.233 15.0782 30.4186 14.5532L30.3727 14.5115Z" fill="white"/>
<path d="M31.1616 26.2873C27.9933 26.2888 24.9891 28.1777 22.8005 30.3642C21.1457 32.0176 19.5007 33.7237 21.4318 35.7043C21.9968 36.2987 23.0301 36.8879 23.8374 36.4281C26.5627 34.8759 29.1176 32.7443 30.0136 29.6106C30.3874 28.2459 30.3229 27.5599 31.1888 26.3273L31.166 26.2882L31.1616 26.2873Z" fill="white"/>
<path d="M30.7211 37.8832C28.0541 37.8982 24.643 39.7276 22.8697 41.6324C21.5257 43.076 19.0721 46.1817 21.0027 48.0198C24.2707 50.5604 28.7194 43.9304 29.5722 41.3251C29.9125 40.2856 30.1126 38.7909 30.7865 37.9342L30.7854 37.8745L30.7211 37.8832Z" fill="white"/>
<path d="M2.8063 37.8832C3.67677 39.4134 3.77068 40.6688 4.39755 42.2302C5.38677 44.6621 9.54489 50.4652 12.6321 48.0198C13.0779 47.4517 13.4219 46.8949 13.2847 46.1387C12.4754 41.6773 7.14677 38.2412 2.8063 37.8832Z" fill="white"/>
</svg>
