<svg width="183" height="277" viewBox="0 0 183 277" fill="none" xmlns="http://www.w3.org/2000/svg">
<path d="M59.17 122.64C52.88 127.72 46.14 131.82 37.71 131.91C26.83 132.03 16.72 124.6 13.17 113.97C9.76002 103.76 13.57 91.5 22.15 85.18C25.88 82.43 29.92 80.28 35.34 78.93C23.8 75.58 15.15 69.8699 12.61 58.0499C11.2 51.4699 12.38 45.09 16.03 39.41C20.96 31.73 28.14 27.9 37.29 27.61C46.33 27.32 53.39 31.64 60.38 37.56C56.85 23.97 58.44 12.35 70.46 4.28997C78.92 -1.38003 90.92 -0.970042 99.28 5.11996C110.23 13.1 111.26 24.12 108.04 36.66C111.06 34.58 113.61 32.54 116.41 30.94C133.1 21.38 152.62 29.91 156.6 48.43C158.96 59.42 151.45 71.74 139.54 76.33C137.73 77.03 135.86 77.59 133.65 78.34C146.61 82.85 156.16 90.3 156.8 104.76C157.27 115.53 152.08 123.85 142.49 128.65C129.53 135.13 118.42 130.51 108.07 121.15C109.53 128.27 110.69 134.78 108.37 141.44C104.4 152.8 94.08 159.15 80.64 158.14C70.47 157.38 61.54 148.73 59.35 138.08C58.3 133 59.09 128.18 60.01 123.28C60.2 122.83 60.32 122.36 59.86 122.02C59.81 121.98 59.41 122.41 59.17 122.62V122.64ZM117.21 79.23C117.14 60.81 102.59 46.38 84.14 46.43C66.33 46.48 51.42 61.55 51.47 79.46C51.52 97.47 66.2 112.19 84.23 112.3C102.15 112.41 117.28 97.23 117.2 79.23H117.21Z" fill="white"/>
<path d="M57.9401 192.3C58.7201 215.28 44.5202 232.41 27.8902 238.06C20.2802 240.65 12.7201 241.3 6.07015 235.59C1.07015 231.3 0.0501546 225.44 0.640155 219.28C2.47015 200.11 13.3602 187.45 30.1002 179.27C36.3402 176.22 42.8802 173.97 50.0102 173.79C53.1902 173.71 54.8402 174.98 55.8302 177.81C57.5402 182.69 58.2201 187.7 57.9401 192.3ZM42.8801 194.09C35.3001 202.36 27.6802 210.59 20.1602 218.91C18.6002 220.64 17.1802 222.56 16.4102 224.85C16.1702 225.57 15.7202 226.35 16.1602 226.96C16.8002 227.83 17.8302 227.3 18.5402 227.01C22.1402 225.53 25.3101 223.36 28.1301 220.67C35.7201 213.42 40.1202 204.29 43.4702 194.55C43.4802 194.23 43.6202 193.73 43.4702 193.63C43.0602 193.35 43.0001 193.81 42.8801 194.09Z" fill="white"/>
<path d="M152.35 223.52C134.49 222.48 119.91 213.96 111.37 196.28C107.79 188.87 108.91 185.07 115.79 180.47C126.07 173.59 137.34 172.56 148.98 176.18C165.66 181.36 175.95 193.12 181.96 209.1C183.33 212.73 182.27 215.25 178.79 217.02C170.94 221.03 162.67 223.28 152.36 223.53L152.35 223.52ZM126.13 191.34C129.72 200.06 154.31 209.33 165.54 206.1C152.68 199.99 140.49 193.33 126.13 191.34Z" fill="white"/>
<path d="M120.7 253.77C120.26 257.71 120.19 261.54 118.75 265.23C114.8 275.33 104.65 279.29 94.9804 274.34C76.5004 264.87 65.9404 239.42 72.2904 219.67C75.1904 210.66 77.6503 209.27 86.8303 212.18C104.01 217.62 115.95 228.22 119.78 246.51C120.29 248.93 120.42 251.44 120.71 253.78L120.7 253.77ZM90.0803 229.38C92.1303 238.07 94.9704 246.44 99.5304 254.14C101.06 256.72 102.8 259.13 105 261.17C105.49 261.62 105.86 262.58 106.76 262.11C107.54 261.71 107.4 260.81 107.39 260.09C107.38 259.35 107.24 258.61 107.11 257.88C105.01 246.28 98.1404 237.51 90.0904 229.38H90.0803Z" fill="white"/>
<path d="M59.1699 122.64C59.4099 122.43 59.8099 122 59.8599 122.04C60.3099 122.38 60.1999 122.85 60.0099 123.3C59.7299 123.08 59.4499 122.86 59.1699 122.64Z" fill="#131313"/>
<path d="M42.8799 194.09C42.9999 193.82 43.0599 193.36 43.4699 193.63C43.6099 193.73 43.4699 194.23 43.4699 194.55C43.2599 194.42 43.0599 194.26 42.8899 194.09H42.8799Z" fill="#131313"/>
<path d="M84.7798 100.73C72.7498 101.09 63.0099 91.84 62.6699 79.73C62.3499 68.38 71.9798 58.06 83.2098 57.71C95.3298 57.33 105.33 66.42 106.04 77.66C106.8 89.78 96.8599 100.84 84.7899 100.74L84.7798 100.73Z" fill="white"/>
</svg>
