<svg width="53" height="53" viewBox="0 0 53 53" fill="none" xmlns="http://www.w3.org/2000/svg">
<path d="M27.3541 52.7714C12.7772 53.3015 0.533961 41.9073 0.0170236 27.33C-0.499929 12.7526 10.9055 0.519782 25.4833 0.016048C40.0423 -0.487046 52.2562 10.9005 52.7725 25.4592C53.2887 40.0178 41.9122 52.242 27.3541 52.7714ZM25.2394 1.51517C19.2501 2.0557 13.847 3.9942 9.43749 8.28998C9.86327 8.7378 10.3078 9.15639 10.7372 9.59889L17.7062 16.6558C18.6519 17.6072 19.828 18.7248 20.7241 19.6894C21.0717 19.2775 21.2401 19.0473 21.6834 18.7365C21.2405 16.955 21.5092 14.774 23.0708 13.6026C22.2205 11.6962 21.1728 9.8803 19.7156 8.36624C19.3156 7.95045 18.5683 7.53936 18.8508 6.8242C19.8269 4.35327 24.0584 11.9411 24.3825 12.7558C25.7195 12.0826 27.0848 12.1911 28.4306 12.7558C29.1036 11.4583 31.5761 6.90467 33.0147 6.43233C33.6611 6.21874 34.2258 7.0592 33.832 7.5928C33.6159 7.87889 33.3448 8.13295 33.0933 8.38936C31.6744 9.83592 30.5901 11.7676 29.7286 13.6026C31.2647 15.1912 31.5594 16.5917 31.0341 18.7365C31.3323 18.9447 31.6387 19.1878 31.8978 19.4433C32.657 19.183 34.1467 18.6267 34.8801 18.4822L34.9095 18.414C35.2934 17.5361 36.0478 16.7228 36.5273 15.9597C37.283 14.7569 38.5662 15.777 37.9147 16.6667C35.8819 19.4423 36.3581 19.8439 32.8266 20.7236C33.2028 21.3548 33.4053 21.825 33.7392 22.4514H37.4811C38.3111 21.675 39.1061 20.8594 39.9134 20.0345C40.6609 19.2708 41.673 19.1053 41.6373 20.3019C41.3848 20.8647 38.333 23.8597 38.1269 23.9083C37.5025 24.055 34.7941 23.9501 34.0122 23.9765C34.1642 24.8494 34.3414 25.9559 34.5475 26.8106C35.6433 27.054 38.262 28.2011 39.3706 28.7019C40.075 29.02 41.0192 31.8623 41.6373 32.6875C42.2389 33.0086 44.8766 33.6922 44.8972 34.2953C44.9641 36.2359 41.5878 34.4053 40.5705 33.8967C39.73 33.0361 39.2776 30.9283 38.4984 30.0497C37.9781 29.6947 35.5356 28.753 34.8801 28.6086C35.3498 30.8517 35.6259 31.8628 35.368 34.1878C38.1812 37.3019 41.5709 40.3375 44.5328 43.3705C59.6273 26.9642 47.5425 0.788907 25.2394 1.51517ZM8.29233 9.41202C7.54702 10.0772 6.85687 11.0334 6.26655 11.8414C-0.489478 21.089 0.0775229 34.4362 7.8264 42.9492C17.3097 53.3676 33.3447 54.1165 43.4198 44.4347L36.4026 37.4284C35.9398 36.9665 35.3816 36.3848 34.8801 35.9748C34.1703 37.5442 33.9283 37.6328 32.9664 38.9184C35.2503 40.2448 36.3347 42.037 36.832 44.6472C37.3037 47.1234 35.5331 46.4258 35.455 45.7483C35.2619 44.0736 34.8269 42.4378 33.5644 41.2436C32.9737 40.7364 32.3158 40.3615 31.5833 40.0951C28.7164 42.0192 25.3203 42.4151 22.2134 40.7387C21.8406 40.5375 21.4283 40.2511 21.0437 40.0951C19.2767 40.6567 17.8134 42.5965 17.4756 44.3592C17.3703 44.8334 17.4594 45.358 17.3166 45.8192C17.1092 46.4894 15.9101 46.395 15.8697 45.7167C15.7039 42.9386 17.4094 40.183 19.8264 38.9184C16.5031 34.8298 17.5381 32.9565 17.9364 28.6086C16.9737 28.9901 15.4325 29.5925 14.5333 30.0497C14.1747 30.6778 12.6316 33.7123 12.2594 33.9772C11.8731 34.252 9.13171 35.3153 8.60609 35.0023C6.68921 33.8606 10.9425 32.857 11.3542 32.6875C11.8705 31.8084 12.832 29.6469 13.4189 28.9762C13.7161 28.6367 17.6395 27.0123 18.2887 26.8106C18.48 25.8662 18.6319 24.9295 18.7745 23.9765C17.4387 24.0036 15.7458 23.8423 14.3745 23.7487C14.1336 23.7323 11.6244 20.958 11.3134 20.5789C10.8576 20.0231 11.813 19.1195 12.3989 19.634C13.3094 20.4337 14.1634 21.4362 14.9887 22.3426C16.3325 22.3181 17.7725 22.4022 19.1114 22.5405C19.2692 22.1361 19.4123 21.7737 19.5936 21.378C17.1305 20.2656 15.6583 19.4345 15.4078 16.5212C14.6328 15.7105 13.7837 14.8905 12.9891 14.094L10.2162 11.2895C9.98296 11.0564 8.47077 9.5228 8.29233 9.41202ZM26.1769 13.8359C24.1405 13.9884 22.7592 15.7083 23.0708 17.7405C24.2928 17.1872 25.0639 16.858 26.4698 16.9445C27.9026 16.9412 28.4467 17.169 29.7286 17.7405C29.808 15.492 28.5428 13.7737 26.1769 13.8359ZM25.9056 18.4822C24.417 18.66 22.7281 19.4537 21.8701 20.7236C22.3356 21.1087 22.8409 21.6387 23.2741 22.0737L25.33 24.144C27.5047 26.3359 29.6822 28.5275 31.8978 30.6783C32.6003 31.3742 33.2236 32.1283 34.0122 32.6875C33.8344 31.0897 32.6061 23.5815 31.9623 22.1855C30.9731 20.04 28.3633 18.1805 25.9056 18.4822ZM17.5672 18.6137C17.678 18.6834 17.7591 18.755 17.8853 18.7559L17.9364 18.7365C17.7689 18.658 17.7459 18.6411 17.5672 18.6137ZM21.0437 22.0164C20.1855 23.5162 19.1725 30.3272 18.9816 32.4826C18.7686 36.5722 21.7653 39.6609 25.663 40.2483L25.6612 31.0011C25.6611 30.6098 25.6459 30.2239 25.6797 29.8395C25.7297 29.27 26.5487 29.0259 26.908 29.4201C27.2703 29.818 27.1812 30.807 27.1808 31.3265L27.1764 33.732L27.1747 38.173C27.1742 38.7219 27.135 39.7494 27.1764 40.2483C30.3076 39.8311 32.7111 37.6773 33.7392 34.732C33.1475 34.0901 32.4469 33.4437 31.8241 32.8222L28.2273 29.2131C25.8778 26.8631 23.4275 24.3047 21.0437 22.0164Z" fill="white"/>
</svg>
