<svg width="50" height="49" viewBox="0 0 50 49" fill="none" xmlns="http://www.w3.org/2000/svg">
<path d="M7.64525 12.6421C7.18224 10.1961 6.03136 7.8291 5.60838 5.58644C5.01949 2.46435 8.37284 -0.238608 11.3362 0.631361C12.5564 0.98963 16.8057 3.26433 17.6336 3.17416C19.4438 2.97701 22.2043 0.816821 24.487 0.442376C26.6998 0.235935 29.5167 1.91886 31.5414 2.8609C32.7648 3.43025 33.1815 3.14774 34.2775 2.64533L36.462 1.62337C37.9545 0.911474 39.206 0.19029 40.9208 0.560091C43.2475 1.06202 44.823 3.30501 44.4101 5.66331C44.0899 7.73429 43.0409 10.4725 42.555 12.6421C42.9221 13.2787 43.2432 13.9495 43.5025 14.6381C45.979 21.214 47.9995 31.502 46.6223 38.5123C46.504 39.1153 46.3264 39.7489 46.2453 40.3485L46.2375 40.4097C46.9945 41.2377 48.7639 43.7717 49.36 44.8121C50.3282 46.5017 48.9255 48.6707 46.9883 48.4857C45.7498 48.3675 42.641 47.0315 41.2888 46.5957C37.2918 48.4032 35.6718 48.3555 31.576 48.355L25.4658 48.3558L19.2447 48.357C15.9255 48.3571 13.4829 48.4238 10.3553 47.2181C9.86278 47.0281 9.34579 46.7629 8.84979 46.6135L8.78973 46.5957C8.25545 46.6753 7.59176 46.9263 7.07382 47.1082L4.61446 47.9973C3.43442 48.4252 2.54524 48.8299 1.399 47.9929C0.381685 47.3167 0.0620142 45.7141 0.812346 44.7102C1.85785 43.3116 2.90255 41.8011 3.97351 40.4097C1.66502 33.1495 4.24033 19.8829 7.64525 12.6421ZM24.8681 2.20137C22.2156 2.62002 19.2774 5.58756 16.5421 4.83386C15.8871 4.65513 15.2394 4.31864 14.6125 4.02812L12.2204 2.93697C11.6887 2.69898 11.2039 2.45602 10.6234 2.35464C8.94236 2.06108 6.99966 3.54717 7.39445 5.35549C7.81438 7.27897 8.74408 9.69332 9.29854 11.718H25.2256H40.9662C41.0724 10.9938 41.2629 10.3472 41.4512 9.64207L42.1272 7.13819C42.325 6.42261 42.6306 5.53871 42.6285 4.81656C42.6245 3.33832 41.218 2.16838 39.7726 2.30243C38.5653 2.41454 35.2218 4.30871 33.7892 4.81576C32.3321 5.33147 30.8785 4.59155 29.5911 3.98215L27.2727 2.89757C26.5466 2.56044 25.6859 2.11345 24.8681 2.20137ZM9.29854 13.5153C5.95528 18.529 4.21262 33.0528 5.33308 38.6151C5.45303 39.2109 5.89987 40.1779 5.78264 40.7582C5.51662 42.076 1.40044 45.7927 2.51481 46.565C2.92577 46.8499 4.18684 46.1929 4.59796 46.0472L7.22741 45.1439C8.36451 44.7515 8.73896 44.4543 9.86374 45.0533C12.7719 46.602 15.2693 46.5973 18.4102 46.5964L31.6522 46.5946C35.028 46.5956 36.487 46.6519 39.7515 45.2885C40.8767 44.7251 41 44.4887 42.2443 44.9223C43.809 45.4676 45.622 46.2343 47.1601 46.7048C48.5045 46.4096 47.6138 45.3745 47.2048 44.7973L45.5257 42.4512C43.6839 39.9255 44.3057 41.1432 44.735 38.6363C46.1704 32.218 44.4929 23.7443 42.6163 17.609C42.3176 16.6326 41.5255 14.3234 40.9662 13.5153H9.29854Z" fill="white"/>
<path d="M24.4872 30.1317C21.5611 30.1377 19.0987 30.1941 16.7096 28.0589C14.4095 26.0035 13.8236 23.1365 13.6724 20.1984C13.5491 17.8035 14.4308 17.8703 16.7535 17.8001C20.1887 17.4454 23.6761 19.5854 25.466 22.4384C27.6816 17.3847 36.819 16.7013 36.8849 18.9797C36.9763 22.1365 36.9584 24.5436 34.9452 27.159C32.5145 30.0521 29.7541 30.1365 26.3238 30.1317C25.6299 31.0732 25.1774 31.0839 24.4872 30.1317ZM16.849 19.6079C16.3496 19.623 15.9438 19.6518 15.4452 19.7061C15.3219 25.042 17.73 28.4338 23.2623 28.3007C22.4653 27.5461 19.7199 25.0119 19.178 24.1838C18.9988 23.6703 19.1405 23.1396 19.6863 22.9344C20.5851 22.5968 23.8412 26.306 24.4872 26.9807C24.8137 22.6335 21.0228 19.147 16.849 19.6079ZM33.0872 19.6079C28.4883 20.0852 26.2602 22.7528 26.3238 27.159C27.1353 26.2624 27.9714 25.4328 28.8263 24.5757C29.4221 23.9895 31.2978 21.5217 31.8758 23.7062C31.7855 23.9636 31.7288 24.1208 31.5441 24.3385C31.0696 24.8716 30.5334 25.3851 30.0345 25.9005L27.7447 28.3007C33.555 28.2769 35.1391 25.0337 35.1241 19.7061C34.4708 19.6177 33.7468 19.574 33.0872 19.6079Z" fill="white"/>
<path d="M18.9046 35.0818C18.3777 35.0901 17.2692 35.1656 16.8073 35.044C15.8999 34.8052 15.8717 33.6779 16.7534 33.2535C17.6589 33.2416 20.0008 32.9524 19.5098 34.4606C19.4009 34.7951 19.2129 34.9484 18.9046 35.0818Z" fill="white"/>
<path d="M23.8677 35.0818C23.2255 35.0885 22.2687 35.1482 21.6726 34.9932C20.7674 34.7579 20.9111 33.5986 21.7209 33.2534C22.6203 33.2278 25.3433 32.9496 24.443 34.642C24.3058 34.9 24.1407 34.9994 23.8677 35.0818Z" fill="white"/>
<path d="M29.0488 35.0818C28.0728 35.1553 26.0148 35.3819 26.1588 34.0057C26.2001 33.6116 26.4098 33.4187 26.7626 33.2534C27.2951 33.2278 28.3547 33.2105 28.867 33.2797C29.8714 33.4152 29.9489 34.5212 29.0488 35.0818Z" fill="white"/>
<path d="M34.1183 35.0818C33.0949 35.2358 30.8282 35.3313 31.2624 33.7546C31.338 33.4802 31.6408 33.3487 31.8756 33.2534C32.3904 33.227 33.5288 33.2092 34.0145 33.2901C34.9007 33.4374 35.0221 34.6253 34.1183 35.0818Z" fill="white"/>
</svg>
