<svg width="37" height="40" viewBox="0 0 37 40" fill="none" xmlns="http://www.w3.org/2000/svg">
<path d="M18.6273 5.93849C15.4973 6.30611 14.9768 0.568607 18.0869 0.0213535C20.7279 -0.384561 21.9355 5.12123 18.6273 5.93849ZM18.0869 1.21967C16.4897 2.09205 17.1855 5.01564 18.5092 4.75185C20.0512 4.04568 19.5673 1.0215 18.0869 1.21967Z" fill="white"/>
<path d="M23.4529 8.31118C19.4259 8.09638 21.1642 3.35731 24.1082 2.86337C27.1232 2.45356 27.3547 7.38223 23.4529 8.31118ZM24.1082 4.08845C22.3884 4.39524 21.4287 7.25825 23.4529 7.16028C25.5131 6.0545 25.7915 3.68099 24.1082 4.08845Z" fill="white"/>
<path d="M14.0049 8.31118C10.7482 8.72239 8.93205 3.46888 12.1158 2.95255C15.101 2.48591 17.2163 7.79614 14.0049 8.31118ZM12.2773 4.08845C10.7707 4.52145 12.1453 7.21114 13.779 7.16028C15.3317 6.84786 13.9188 4.12067 12.2773 4.08845Z" fill="white"/>
<path d="M24.3844 11.0659C24.1606 12.6155 22.9203 13.7036 21.3631 13.8243C19.4204 13.9749 19.6866 12.3279 16.9345 13.5835C13.5487 14.9826 11.4806 10.1901 13.0498 9.47732C13.8516 9.41322 13.7527 10.0858 13.7748 10.6594C13.8248 11.9597 15.0544 12.9287 16.3324 12.5113C17.6142 12.0925 18.2719 11.5299 19.8144 12.1644C20.761 12.5538 21.4112 12.9707 22.3734 12.2995C23.6424 11.4143 22.8649 10.2195 23.4234 9.63306C23.6445 9.4008 24.0291 9.50322 24.2268 9.71966C24.4978 10.0161 24.3952 10.6917 24.3844 11.0659Z" fill="white"/>
<path d="M3.09453 22.4965C1.56886 22.5612 0.0658866 22.0946 0.000648345 20.3149C-0.0336056 19.3804 1.2991 16.7687 1.70632 15.833L2.77589 13.3499C3.26972 12.1837 3.46953 10.979 4.9721 10.938C6.29 10.9121 7.69531 10.9374 9.02011 10.9378L10.3817 10.9369C12.3942 10.9346 11.7116 12.0813 11.0714 12.096C10.5124 12.1089 9.9432 12.0995 9.38128 12.0992L5.2257 12.079C4.97398 12.0797 4.74957 12.0864 4.565 12.2763C4.24191 12.6089 3.05949 15.6332 2.79839 16.2378L1.7716 18.6174C1.57695 19.0685 1.19574 19.7937 1.15941 20.2719C1.05265 21.6799 3.68351 21.3438 4.50687 21.3442L7.98089 21.3458C10.0948 21.3483 9.52203 21.5719 11.1764 20.2585L15.3796 16.9631C17.6083 15.2503 18.2942 14.371 20.7376 16.2794L24.7168 19.4144C25.5066 20.0295 26.4097 20.6964 27.1626 21.3455L32.0235 21.346C32.9465 21.3457 33.8787 21.3682 34.7985 21.3093C35.966 21.2346 35.7737 20.0721 35.4769 19.3309L33.5211 14.5733C32.6414 12.3467 33.0416 12.0959 30.8367 12.0959L27.5325 12.0971C27.0376 12.0997 26.3189 12.1296 25.8414 12.0907C25.2301 12.0408 25.0694 10.9744 26.0063 10.949C26.7301 10.9294 27.4612 10.9409 28.1848 10.9398L30.3193 10.937C30.9523 10.9363 31.986 10.8992 32.575 11.0659C33.7154 11.4376 33.8771 12.4103 34.2896 13.4209L36.1625 17.9678C36.7299 19.3347 37.4997 20.6215 36.1857 21.8933C35.5287 22.5291 34.7962 22.5149 33.9355 22.4965L33.937 35.9355C33.9376 38.2606 33.8176 39.234 31.2522 39.2288L5.5148 39.2318C3.09757 39.2555 3.09289 37.8019 3.09324 35.8443L3.09453 22.4965ZM18.2824 16.3975C17.1349 16.7657 12.3825 20.8055 11.2386 21.7098C9.85121 22.8065 10.1877 22.5001 8.29765 22.497L4.24273 22.4965C4.19773 25.7812 4.24355 29.1866 4.2432 32.4812L4.24086 35.6772C4.23886 37.5378 3.84054 38.079 5.96996 38.0785L13.325 38.0758L13.3251 33.4827C13.3256 28.9125 13.8301 27.3492 18.7293 27.3675C20.8619 27.3676 22.8759 27.7854 23.5187 30.2523C23.7214 31.0303 23.6644 32.1705 23.6636 32.994L23.6613 36.3726C23.6609 36.878 23.639 37.5794 23.6626 38.0758L31.0821 38.0773C33.2055 38.0912 32.7626 37.3687 32.7612 35.4665L32.7594 22.4965L29.0823 22.4969C26.7084 22.4973 27.1947 22.83 25.4228 21.4322L21.1646 18.0913C20.4073 17.4978 19.2223 16.3103 18.2824 16.3975ZM16.9591 28.5173C14.6582 28.8599 14.489 30.646 14.4835 32.5535L14.4848 38.0758H20.108H22.5059L22.5049 33.3045C22.505 31.8284 22.7601 30.464 21.6523 29.3092C20.6662 28.3044 18.3634 28.4433 16.9591 28.5173Z" fill="white"/>
<path d="M16.8524 20.4924C16.8497 19.5212 17.3338 18.9428 18.2824 18.7406C19.3873 18.6321 20.0787 19.4308 20.1081 20.4924C22.4122 20.7505 22.3422 23.6568 20.1081 23.7874C20.0884 24.7144 19.6485 25.3169 18.7294 25.5249C17.5092 25.6753 16.9232 24.8937 16.8524 23.7874C14.6443 23.7183 14.405 20.7392 16.8524 20.4924ZM18.3506 19.9098C17.5933 20.3032 18.3504 21.2058 17.7798 21.5717C17.4109 21.8083 16.0191 21.3074 16.3456 22.3749C16.4986 22.834 17.6729 22.3897 17.9188 22.8293C18.2462 23.4077 17.5478 24.3022 18.6273 24.3795C19.3569 24.1622 18.6013 22.9234 19.3041 22.6657C19.7476 22.5031 20.899 22.8649 20.5942 21.9283C20.4288 21.4204 19.2595 21.8922 19.0307 21.4375C18.7666 20.9131 19.3267 19.8776 18.3506 19.9098Z" fill="white"/>
<path d="M20.9243 34.3234C19.9839 34.3262 19.9118 32.1931 20.736 31.9511C21.6826 31.9308 21.7105 34.049 20.9243 34.3234Z" fill="white"/>
</svg>
