<svg width="17" height="20" viewBox="0 0 17 20" fill="none" xmlns="http://www.w3.org/2000/svg">
<path d="M15.6098 18.5185C15.8418 18.5185 16.0317 18.6844 16.0317 18.8889C16.0317 19.0933 16.0317 20 16.0317 20H0C0 20 0 19.0933 0 18.8889C0 18.6844 0.189005 18.5185 0.421886 18.5185H1.83099C1.90102 13.5867 5.57059 11.997 5.57059 10.0037C5.57059 8 1.83352 7.86667 1.79808 1.48148H0.421886C0.189005 1.48148 0 1.31556 0 1.11111C0 0.906667 0 0 0 0H16.0317C16.0317 0 16.0317 0.906667 16.0317 1.11111C16.0317 1.31556 15.8418 1.48148 15.6098 1.48148H14.3188C14.2834 7.86667 10.5463 8 10.5463 10.0037C10.5463 11.997 14.2167 13.5867 14.2868 18.5185H15.6098ZM9.37516 10.0037C9.37516 7.99185 13.1131 7.86667 13.1477 1.48148H2.96924C3.00383 7.86667 6.74174 7.99185 6.74174 10.0037C6.74174 11.9378 3.07049 13.5681 3.0013 18.5185H3.64088C3.79107 18.0793 4.28974 17.5511 5.15123 17.16L6.27092 16.6585C6.97463 16.3393 7.39651 16.1237 7.53658 16.0126C7.67664 15.9015 7.83527 15.6526 8.01247 15.2659C8.19894 15.6519 8.35841 15.9007 8.49342 16.0126C8.62842 16.1244 9.04524 16.3393 9.74557 16.6585L10.8594 17.16C11.7158 17.5511 12.2128 18.0793 12.3604 18.5185H13.1148C13.0456 13.5681 9.37516 11.9378 9.37516 10.0037ZM8.49679 8.9163C8.39554 9.09111 8.31032 9.4237 8.24282 9.91407C8.22594 10.0622 8.18881 10.2852 8.12891 10.5822C8.06984 10.2852 8.03187 10.0622 8.015 9.91407C7.94665 9.4237 7.86143 9.09185 7.75933 8.9163C7.65724 8.74222 7.36951 8.42889 6.89447 7.97481L5.83891 6.96148C5.11748 6.27852 4.65509 5.78815 4.45175 5.49185C5.7039 6.19185 6.92653 6.54222 8.11963 6.54222C9.31272 6.54222 10.5396 6.19185 11.8002 5.49185C11.5892 5.78815 11.1251 6.27852 10.4088 6.96148L9.35744 7.97481C8.88493 8.42889 8.5972 8.74222 8.49679 8.9163Z" fill="#01A572"/>
</svg>
