<svg width="670" height="338" viewBox="0 0 670 338" fill="none" xmlns="http://www.w3.org/2000/svg">
<path d="M644.451 38.231C624.139 14.1386 594.416 0.207132 562.8 0.0047419H562.708H562.634C562.344 0.00314827 562.056 0.00314827 561.766 0.0047419H109.015C77.3753 -0.291672 47.3179 13.3211 26.6327 37.2988L26.1211 37.8916C9.38167 57.2956 0.125902 82.0605 0.0111614 107.676C0.00956778 107.748 0 107.818 0 107.89V321.23C0 330.032 7.13466 337.167 15.9363 337.167H653.844C662.645 337.167 669.78 330.032 669.78 321.23V107.566C669.78 82.2263 660.784 57.6031 644.451 38.231ZM454.139 305.294H31.8709V124.088L454.139 123.927V305.294ZM480.77 37.2988L480.258 37.8916C466.982 53.2812 458.426 72.0589 455.391 91.9537H33.6351C36.3124 79.7466 41.9825 68.298 50.2518 58.7139L50.7634 58.1211C65.1745 41.4167 86.0287 31.874 108.204 31.874C108.427 31.874 108.652 31.8741 108.875 31.8773H485.782L485.833 31.8677C484.096 33.6223 482.394 35.4167 480.77 37.2988ZM588.456 305.294H537.912V208.596H588.456V305.294ZM637.908 305.294H620.33V192.66C620.33 183.858 613.195 176.723 604.394 176.723H521.978C513.176 176.723 506.041 183.858 506.041 192.66V305.294H486.013V108.333C486.013 108.284 486.014 108.236 486.014 108.201C486.014 108.139 486.016 108.076 486.016 108.016C486.049 89.9203 492.577 72.4095 504.392 58.7139L504.904 58.1211C519.379 41.3402 540.371 31.7386 562.634 31.8773H562.698C584.875 32.0191 605.791 41.8231 620.083 58.7744C631.576 72.4063 637.908 89.7338 637.908 107.565V305.294Z" fill="#01A572"/>
<path d="M73.6277 183.871H284.616C293.417 183.871 300.552 176.736 300.552 167.935C300.552 159.133 293.417 151.998 284.616 151.998H73.6277C64.8261 151.998 57.6914 159.133 57.6914 167.935C57.6914 176.736 64.8261 183.871 73.6277 183.871Z" fill="#01A572"/>
<path d="M350.549 183.871H388.461C397.262 183.871 404.397 176.736 404.397 167.935C404.397 159.133 397.262 151.998 388.461 151.998H350.549C341.747 151.998 334.612 159.133 334.612 167.935C334.612 176.736 341.747 183.871 350.549 183.871Z" fill="#01A572"/>
</svg>
