<svg width="60" height="20" viewBox="0 0 60 20" fill="none" xmlns="http://www.w3.org/2000/svg">
<path d="M21.2109 0.35083V6.29414C22.3363 5.73477 23.0866 5.59492 24.062 5.59492C27.2131 5.59492 29.764 8.11208 29.764 11.0488C29.764 14.0554 27.0631 16.5726 23.8369 16.5726C21.8112 16.5726 19.9355 15.5937 18.8851 14.0554C18.1348 13.0066 17.9848 12.1675 17.9848 10.2796V0.35083H21.2109ZM21.1359 10.9789C21.1359 12.3773 22.3363 13.496 23.8369 13.496C25.2624 13.496 26.4628 12.3773 26.4628 10.9789C26.4628 9.51051 25.2624 8.39177 23.8369 8.39177C22.4114 8.39177 21.1359 9.58043 21.1359 10.9789Z" fill="#222221"/>
<path d="M41.8434 12.8667C40.9431 15.1042 38.9173 16.4327 36.3664 16.4327C33.1402 16.4327 30.5893 14.0554 30.5893 10.9788C30.5893 7.97223 33.1402 5.59491 36.3664 5.59491C39.3675 5.59491 42.0685 7.83239 42.0685 10.2796C42.0685 11.3984 41.0931 12.1675 39.5176 12.1675H33.9655C34.4907 13.1464 35.241 13.6359 36.2914 13.6359C37.0417 13.6359 37.4918 13.4261 38.1671 12.8667H41.8434ZM38.6172 9.93003C38.1671 8.88121 37.4168 8.39176 36.2914 8.39176C35.166 8.39176 34.2657 9.02105 33.8905 9.93003H38.6172Z" fill="#222221"/>
<path d="M44.8445 4.4063C45.8199 4.4063 46.6452 3.63717 46.6452 2.72819C46.6452 1.81921 45.8199 1.05008 44.7695 1.05008C43.7941 1.05008 42.9688 1.81921 42.9688 2.72819C42.9688 3.63717 43.7941 4.4063 44.8445 4.4063Z" fill="#222221"/>
<path d="M46.4951 5.66483H43.2689V19.6491H46.4951V5.66483Z" fill="#222221"/>
<path d="M60 11.1187C60 14.1253 57.2239 16.7124 53.9228 16.7124C50.5465 16.7124 47.8456 14.1953 47.8456 11.0488C47.8456 7.90234 50.5465 5.38517 53.9228 5.38517C57.299 5.31525 60 7.90234 60 11.1187ZM51.1467 10.9789C51.1467 12.5171 52.3472 13.6359 53.9228 13.6359C55.4233 13.6359 56.6988 12.4472 56.6988 10.9789C56.6988 9.51053 55.4233 8.25194 53.9228 8.25194C52.3472 8.32187 51.1467 9.51053 51.1467 10.9789Z" fill="#222221"/>
<path d="M7.38453 11.063C6.96395 11.063 6.56675 11.1513 6.21627 11.2837V12.6959C6.52002 12.4311 6.91722 12.2546 7.38453 12.2546C8.31913 12.2546 9.06681 12.9607 9.06681 13.8434C9.06681 14.7261 8.31913 15.4543 7.38453 15.4543C6.44992 15.4543 5.70224 14.7481 5.70224 13.8655C5.70224 13.8434 5.70224 13.8434 5.70224 13.8213V11.5705V5.52426C5.70224 5.52426 10.6556 4.88433 10.0715 0.0296646C10.0715 0.0296646 7.12751 -0.433735 5.07138 2.30253C2.99189 -0.411669 0.0478803 0.0296646 0.0478803 0.0296646C-0.536248 4.9064 4.41716 5.52426 4.41716 5.52426V13.8655C4.41716 15.4101 5.74897 16.6679 7.38453 16.6679C9.02009 16.6679 10.3519 15.4101 10.3519 13.8655C10.3285 12.3208 9.02009 11.063 7.38453 11.063ZM8.55278 1.464C8.08548 3.82513 5.7957 4.13406 5.7957 4.13406C6.37983 1.77293 8.55278 1.464 8.55278 1.464ZM1.54325 1.464C1.54325 1.464 3.7162 1.77293 4.30033 4.13406C4.30033 4.13406 2.01055 3.80306 1.54325 1.464Z" fill="#56AF31"/>
<path d="M7.38455 9.40801C6.96398 9.40801 6.56677 9.47421 6.19293 9.56248V10.8203C6.56677 10.6879 6.96398 10.6217 7.38455 10.6217C9.30049 10.6217 10.8426 12.0781 10.8426 13.8875C10.8426 15.697 9.30049 17.1534 7.38455 17.1534C5.46861 17.1534 3.92651 15.697 3.92651 13.8875V7.84128H2.66479V13.8655C2.66479 16.3369 4.76766 18.3229 7.38455 18.3229C10.0014 18.3229 12.1043 16.3149 12.1043 13.8655C12.1043 11.394 9.97808 9.40801 7.38455 9.40801Z" fill="#222221"/>
<path d="M7.38454 7.73083C6.96397 7.73083 6.56676 7.77497 6.19292 7.84117V9.0769C6.56676 8.98863 6.98733 8.9445 7.38454 8.9445C10.2584 8.9445 12.595 11.1512 12.595 13.8654C12.595 16.5796 10.2584 18.7862 7.38454 18.7862C4.51063 18.7862 2.17412 16.5796 2.17412 13.8654V7.84117H0.889038V13.8654C0.889038 17.2416 3.78631 19.9999 7.38454 19.9999C10.9594 19.9999 13.88 17.2636 13.88 13.8654C13.8567 10.4892 10.9594 7.73083 7.38454 7.73083Z" fill="#222221"/>
</svg>
