<svg width="17" height="20" viewBox="0 0 17 20" fill="none" xmlns="http://www.w3.org/2000/svg">
<path d="M2.00396 0C2.00396 0.513 2.49493 1 3.00594 1H13.0257C13.5398 1 14.0277 0.51 14.0277 0H16.0317C16.0317 1.657 14.686 3 13.0257 3H9.01782L9.01882 5.062C12.9726 5.555 16.0317 8.921 16.0317 13V19C16.0317 19.552 15.5828 20 15.0297 20H1.00198C0.448887 20 0 19.552 0 19V13C0 8.92 3.06005 5.554 7.01386 5.062V3H3.00594C1.34265 3 0 1.66 0 0H2.00396ZM8.01584 9C5.80147 9 4.00792 10.79 4.00792 13C4.00792 15.21 5.80147 17 8.01584 17C10.2302 17 12.0238 15.21 12.0238 13C12.0238 12.258 11.8214 11.564 11.4687 10.968L8.72424 13.708L8.63006 13.79C8.23728 14.095 7.66815 14.068 7.30744 13.707C6.91667 13.317 6.91667 12.683 7.30744 12.293L10.0519 9.553C9.45468 9.203 8.75931 9 8.01584 9Z" fill="#01A572"/>
</svg>
