<svg width="20" height="18" viewBox="0 0 20 18" fill="none" xmlns="http://www.w3.org/2000/svg">
<path d="M1.04421 0.0371446C0.628636 -0.0886035 0.179446 0.115268 0.0409153 0.492503C-0.0976046 0.869737 0.126991 1.27748 0.542561 1.40322L0.822721 1.48799C1.53807 1.70443 2.01101 1.84869 2.35943 1.99582C2.68934 2.13513 2.83199 2.24725 2.92338 2.36236C3.01478 2.47746 3.08685 2.63575 3.12812 2.96391C3.17171 3.31047 3.17291 3.76336 3.17291 4.44783V7.01275C3.17288 8.32558 3.17287 9.38377 3.29614 10.2161C3.42412 11.0802 3.69792 11.8077 4.33448 12.3855C4.97105 12.9634 5.77255 13.2119 6.72447 13.3281C7.64135 13.44 8.80712 13.44 10.2534 13.44H17.7144C18.1525 13.44 18.5076 13.1176 18.5076 12.72C18.5076 12.3223 18.1525 12 17.7144 12H10.3115C8.79343 12 7.73468 11.9985 6.93585 11.9009C6.15984 11.8063 5.7489 11.633 5.4562 11.3674C5.20748 11.1416 5.03231 10.8382 4.92127 10.32H15.6226C16.6373 10.32 17.1446 10.32 17.5419 10.0822C17.9393 9.84437 18.139 9.42112 18.5388 8.57451L18.992 7.61453C19.8481 5.80131 20.2762 4.89469 19.806 4.24741C19.3358 3.60013 18.2491 3.60013 16.0758 3.60013H4.75403C4.74779 3.30475 4.73413 3.03826 4.70423 2.80058C4.64569 2.33516 4.51815 1.9081 4.21029 1.52038C3.90244 1.13268 3.49645 0.887794 3.02855 0.690201C2.58835 0.50432 2.02856 0.33496 1.36612 0.134544L1.04421 0.0371446Z" fill="white"/>
<path d="M6.60979 15.12C7.4859 15.12 8.19613 15.7647 8.19613 16.5599C8.19613 17.3552 7.4859 17.9999 6.60979 17.9999C5.73367 17.9999 5.02344 17.3552 5.02344 16.5599C5.02344 15.7647 5.73367 15.12 6.60979 15.12Z" fill="white"/>
<path d="M16.1274 15.1201C17.0035 15.1201 17.7137 15.7647 17.7137 16.56C17.7137 17.3553 17.0035 18 16.1274 18C15.2513 18 14.541 17.3553 14.541 16.56C14.541 15.7647 15.2513 15.1201 16.1274 15.1201Z" fill="white"/>
</svg>
