<svg width="38" height="30" viewBox="0 0 38 30" fill="none" xmlns="http://www.w3.org/2000/svg">
<line x1="1.5" y1="2.66113" x2="10.5251" y2="2.66113" stroke="#A8A8A8" stroke-width="3" stroke-linecap="round"/>
<line x1="1.5" y1="13.0947" x2="8.12007" y2="13.0947" stroke="#A8A8A8" stroke-width="3" stroke-linecap="round"/>
<path d="M21.9746 2.39402C27.2054 1.96879 31.8602 6.0087 32.2813 11.5249C32.7021 17.041 28.7176 21.7828 23.4869 22.2085C18.256 22.6339 13.6005 18.5948 13.1793 13.0786C12.7583 7.56227 16.7436 2.8195 21.9746 2.39402Z" stroke="#A8A8A8" stroke-width="3"/>
<path d="M34.9563 29.0776C35.5327 29.6727 36.4672 29.6727 37.0436 29.0777C37.62 28.4826 37.6201 27.5179 37.0437 26.9229L36 28.0002L34.9563 29.0776ZM29.2191 21L28.1754 22.0774L34.9563 29.0776L36 28.0002L37.0437 26.9229L30.2628 19.9226L29.2191 21Z" fill="#A8A8A8"/>
<line x1="1.5" y1="23.5293" x2="12.9301" y2="23.5293" stroke="#A8A8A8" stroke-width="3" stroke-linecap="round"/>
</svg>
