<svg width="20" height="18" viewBox="0 0 20 18" fill="none" xmlns="http://www.w3.org/2000/svg">
<path d="M19.6334 11.1616L16.8883 1.79913H10.6223V0.637555C10.6223 0.323144 10.3154 0 10 0C9.69309 0 9.37766 0.31441 9.37766 0.637555V1.80786H3.11168L0.366581 11.1616H0.306905H0C0 13.2838 1.67945 15.0131 3.75959 15.0131C5.83973 15.0131 7.51918 13.2926 7.51918 11.1616H7.16113H7.10145L4.5098 2.38428H9.42881V16.0437H4.56095V18H5.18329H10H14.8167H15.439V16.0437H10.5712V2.38428H15.4902L12.8986 11.1616H12.8389H12.4808C12.4808 13.2838 14.1603 15.0131 16.2404 15.0131C18.3205 15.0131 20 13.2926 20 11.1616H19.6931H19.6334ZM6.24893 11.1616H1.27025L3.73402 2.64629L6.24893 11.1616ZM13.7511 11.1616L16.266 2.64629L18.7298 11.1616H13.7511Z" fill="white"/>
</svg>
