<svg width="64" height="41" viewBox="0 0 64 41" fill="none" xmlns="http://www.w3.org/2000/svg">
<path d="M2.85987 0H33.9098C35.49 0 36.77 1.32664 36.77 2.96421V34.9072H21.9615L21.8699 34.9074V34.9072H21.8398C21.8398 34.4097 21.8001 33.9226 21.72 33.4976C21.0701 29.611 17.8201 26.7815 14.01 26.7815C10.2 26.7815 6.94999 29.611 6.29999 33.4665C6.21987 33.9226 6.17987 34.4097 6.17987 34.9072H2.32C1.04 34.9072 0 33.8293 0 32.4923V2.96421C0 1.32664 1.28 0 2.85987 0ZM5.99999 7.77327V11.919H30V7.77327H5.99999ZM30 16.0648H5.99999V20.2105H30V16.0648Z" fill="white"/>
<path d="M59.0806 6.80921L64.0004 21.4333V34.907H59.0014L58.9704 34.9072V34.907H58.9404C58.9404 34.4095 58.9004 33.9224 58.8206 33.4974C58.1604 29.6108 54.9204 26.7813 51.1103 26.7813C47.3006 26.7813 44.0506 29.6108 43.4003 33.4663C43.3205 33.9016 43.2805 34.368 43.2805 34.907H39.1503V4.92289H56.3706C57.5604 4.92289 58.6303 5.66913 59.0806 6.80921ZM42.8603 18.8111C42.8603 19.5366 43.4203 20.1067 44.1206 20.1067H57.6603C58.5504 20.1067 59.1603 19.1739 58.8204 18.324L56.1503 9.58685C55.9603 9.09973 55.5004 8.77843 54.9904 8.77843H44.1206C43.4203 8.77843 42.8603 9.35884 42.8603 10.074V18.8111Z" fill="white"/>
<path d="M51.1107 29.3725C53.7309 29.3725 55.9207 31.3521 56.351 33.9432C56.4107 34.2437 56.4409 34.5754 56.4409 34.907C56.4409 37.9438 54.051 40.4209 51.1107 40.4209C48.1607 40.4209 45.781 37.9438 45.781 34.907C45.781 34.5754 45.801 34.2437 45.8607 33.9432C46.2909 31.3521 48.4809 29.3725 51.1107 29.3725Z" fill="white"/>
<path d="M14.0114 29.3725C16.6415 29.3725 18.8214 31.3521 19.2614 33.9432C19.3114 34.2437 19.3412 34.5754 19.3412 34.907C19.3412 37.9438 16.9514 40.4209 14.0114 40.4209C11.0614 40.4209 8.68139 37.9438 8.68139 34.907C8.68139 34.5754 8.70138 34.2437 8.76138 33.9432C9.20138 31.3521 11.3813 29.3725 14.0114 29.3725Z" fill="white"/>
</svg>
