<svg width="61" height="29" viewBox="0 0 61 29" fill="none" xmlns="http://www.w3.org/2000/svg">
<path d="M17.1123 2.84473C18.309 2.54855 19.4556 2.71274 20.4668 3.22168C22.511 4.25051 24.0683 6.74042 24.0684 9.77344C24.0684 15.9314 19.5071 19.1916 15.6875 22.5068C15.0271 23.08 14.4411 23.5797 13.8789 23.9414C13.3139 24.3048 12.8815 24.4551 12.5342 24.4551C12.1868 24.4551 11.7545 24.3049 11.1895 23.9414C10.6274 23.5798 10.042 23.0799 9.38184 22.5068C5.56219 19.1915 1 15.9315 1 9.77344C1.00004 6.74047 2.55739 4.25054 4.60156 3.22168C5.6128 2.71275 6.75932 2.54855 7.95605 2.84473C9.15826 3.14228 10.4775 3.92179 11.7812 5.41309L12.5342 6.27441L13.2871 5.41309C14.5908 3.92179 15.9101 3.14231 17.1123 2.84473Z" fill="white" stroke="white" stroke-width="2"/>
<path d="M60.5099 16.429L56.8397 4.07187H48.4622V2.53875C48.4622 2.12377 48.0518 1.69727 47.6301 1.69727C47.2198 1.69727 46.7981 2.11225 46.7981 2.53875V4.0834H38.4205L34.7504 16.429H34.6706H34.2603C34.2603 19.2302 36.5057 21.5125 39.2868 21.5125C42.0679 21.5125 44.3133 19.2417 44.3133 16.429H43.8346H43.7548L40.2898 4.84419H46.8665V22.8727H40.3582V25.4548H41.1902H47.6301H54.07H54.902V22.8727H48.3938V4.84419H54.9704L51.5054 16.429H51.4257H50.9469C50.9469 19.2302 53.1923 21.5125 55.9735 21.5125C58.7546 21.5125 61 19.2417 61 16.429H60.5897H60.5099ZM42.615 16.429H35.9586L39.2526 5.19001L42.615 16.429ZM52.6452 16.429L56.0077 5.19001L59.3017 16.429H52.6452Z" fill="white"/>
<line x1="1" y1="-1" x2="29.6775" y2="-1" transform="matrix(-0.408581 0.912722 -0.907957 -0.419063 34.2603 0)" stroke="white" stroke-width="2" stroke-linecap="round"/>
</svg>
