<svg width="26" height="24" viewBox="0 0 26 24" fill="none" xmlns="http://www.w3.org/2000/svg">
<path d="M14.1162 4.09082C16.6699 1.24554 19.2149 1.09308 21.0332 1.98438C22.9795 2.93843 24.4998 5.27299 24.5 8.1582C24.5 14.0916 20.0168 17.2272 15.9814 20.6387C15.2924 21.2211 14.7106 21.7039 14.1602 22.0488C13.6063 22.3959 13.2419 22.5 13 22.5C12.7581 22.5 12.3937 22.3959 11.8398 22.0488C11.2895 21.7039 10.7075 21.2211 10.0186 20.6387C5.9832 17.2272 1.5 14.0916 1.5 8.1582C1.50017 5.27299 3.02053 2.93843 4.9668 1.98438C6.78513 1.09309 9.33011 1.24554 11.8838 4.09082L13 5.33496L14.1162 4.09082Z" stroke="#FF7700" stroke-width="3"/>
</svg>
