<svg width="64" height="42" viewBox="0 0 64 42" fill="none" xmlns="http://www.w3.org/2000/svg">
<path d="M2.85944 0.78953H33.9094C35.4895 0.78953 36.7695 2.11617 36.7695 3.75374V35.6967H21.961L21.8694 35.697V35.6967H21.8394C21.8394 35.1992 21.7997 34.7121 21.7195 34.2871C21.0697 30.4005 17.8197 27.571 14.0096 27.571C10.1996 27.571 6.94956 30.4005 6.29956 34.256C6.21944 34.7121 6.17944 35.1992 6.17944 35.6967H2.31957C1.03957 35.6967 -0.000427566 34.6188 -0.000427566 33.2818V3.75374C-0.000427566 2.11617 1.27957 0.78953 2.85944 0.78953ZM5.99957 8.5628V12.7085H29.9995V8.5628H5.99957ZM29.9995 16.8543H5.99957V21H29.9995V16.8543Z" fill="white"/>
<path d="M59.0801 7.59874L64 22.2228V35.6965H59.001L58.97 35.6968V35.6965H58.94C58.94 35.199 58.9 34.7119 58.8201 34.287C58.16 30.4003 54.92 27.5709 51.1099 27.5709C47.3001 27.5709 44.0502 30.4003 43.3999 34.2559C43.32 34.6912 43.28 35.1576 43.28 35.6965H39.1499V5.71242H56.3701C57.56 5.71242 58.6299 6.45866 59.0801 7.59874ZM42.8599 19.6007C42.8599 20.3262 43.4199 20.8962 44.1202 20.8962H57.6599C58.55 20.8962 59.1599 19.9634 58.82 19.1135L56.1499 10.3764C55.9599 9.88926 55.5 9.56796 54.99 9.56796H44.1202C43.4199 9.56796 42.8599 10.1484 42.8599 10.8635V19.6007Z" fill="white"/>
<path d="M51.1103 30.162C53.7304 30.162 55.9203 32.1416 56.3506 34.7327C56.4103 35.0333 56.4404 35.3649 56.4404 35.6966C56.4404 38.7333 54.0506 41.2104 51.1103 41.2104C48.1603 41.2104 45.7806 38.7333 45.7806 35.6966C45.7806 35.3649 45.8006 35.0333 45.8603 34.7327C46.2904 32.1416 48.4804 30.162 51.1103 30.162Z" fill="white"/>
<path d="M14.011 30.162C16.6411 30.162 18.8209 32.1416 19.2609 34.7327C19.3109 35.0333 19.3408 35.3649 19.3408 35.6966C19.3408 38.7333 16.9509 41.2104 14.011 41.2104C11.061 41.2104 8.68096 38.7333 8.68096 35.6966C8.68096 35.3649 8.70096 35.0333 8.76096 34.7327C9.20096 32.1416 11.3808 30.162 14.011 30.162Z" fill="white"/>
</svg>
