<svg width="30" height="30" viewBox="0 0 30 30" fill="none" xmlns="http://www.w3.org/2000/svg">
<path d="M29.5 28.625V29.5H0.5V28.625H29.5Z" fill="#01A572" stroke="#01A572"/>
<path d="M29.5 0.5V11.252C29.4907 12.4367 28.8495 13.4722 27.873 14.043L27.625 14.1885V25.75H24.875V16.375H18.25V25.75H2.37402L2.3584 14.4648L2.35742 14.1787L2.11035 14.0342L1.93457 13.9229C1.13074 13.381 0.58423 12.4909 0.508789 11.4678L0.5 11.2471V0.5H29.5ZM5.125 23H15.5V16.375H5.125V23ZM1.375 11.25C1.375 12.5611 2.43886 13.625 3.75 13.625C5.06114 13.625 6.125 12.5611 6.125 11.25V3.25H1.375V11.25ZM7 11.25C7 12.5611 8.06386 13.625 9.375 13.625C10.6861 13.625 11.75 12.5611 11.75 11.25V3.25H7V11.25ZM12.625 11.25C12.625 12.5611 13.6889 13.625 15 13.625C16.3111 13.625 17.375 12.5611 17.375 11.25V3.25H12.625V11.25ZM18.25 11.25C18.25 12.5611 19.3139 13.625 20.625 13.625C21.9361 13.625 23 12.5611 23 11.25V3.25H18.25V11.25ZM23.875 11.25C23.875 12.5611 24.9389 13.625 26.25 13.625C27.5611 13.625 28.625 12.5611 28.625 11.25V3.25H23.875V11.25Z" fill="#01A572" stroke="#01A572"/>
</svg>
