<svg width="12" height="12" viewBox="0 0 12 12" fill="none" xmlns="http://www.w3.org/2000/svg">
<path d="M4.29191 2.04502C5.05188 0.681674 5.43191 0 6.00003 0C6.56816 0 6.94811 0.681674 7.70809 2.04502L7.90474 2.39774C8.12066 2.78516 8.22866 2.97887 8.39704 3.10669C8.56541 3.23449 8.77511 3.28194 9.19451 3.37683L9.57626 3.46321C11.0521 3.79713 11.79 3.96409 11.9655 4.52865C12.1411 5.09317 11.6381 5.68147 10.632 6.85792L10.3716 7.16235C10.0857 7.49662 9.94279 7.6638 9.87851 7.87065C9.81416 8.07742 9.83576 8.30047 9.87904 8.7465L9.91834 9.15262C10.0705 10.7224 10.1466 11.5072 9.68689 11.8561C9.22729 12.205 8.53639 11.8869 7.15458 11.2507L6.79713 11.0861C6.40443 10.9053 6.20816 10.8149 6.00003 10.8149C5.79191 10.8149 5.59556 10.9053 5.20293 11.0861L4.84541 11.2507C3.46361 11.8869 2.77271 12.205 2.3131 11.8561C1.85347 11.5072 1.92953 10.7224 2.08164 9.15262L2.12099 8.7465C2.16422 8.30047 2.18583 8.07742 2.12152 7.87065C2.05721 7.6638 1.91426 7.49662 1.62835 7.16235L1.36806 6.85792C0.361954 5.68147 -0.141102 5.09317 0.0344508 4.52865C0.210011 3.96409 0.947915 3.79713 2.42373 3.46321L2.80554 3.37683C3.22488 3.28194 3.43458 3.23449 3.60296 3.10669C3.77133 2.97887 3.87933 2.78516 4.09526 2.39774L4.29191 2.04502Z" fill="#01A572"/>
</svg>
