<svg width="20" height="20" viewBox="0 0 20 20" fill="none" xmlns="http://www.w3.org/2000/svg">
<path d="M10.0004 10.4C12.6595 10.4 14.8152 8.07189 14.8152 5.20001C14.8152 2.32812 12.6595 0 10.0004 0C7.34121 0 5.18555 2.32812 5.18555 5.20001C5.18555 8.07189 7.34121 10.4 10.0004 10.4Z" fill="white"/>
<path d="M19.7845 16.361C18.8859 14.1024 17.1886 12.2201 14.9921 11.0908C14.393 10.8398 13.6941 10.8398 13.1949 11.2163C12.1965 11.9692 11.1981 12.3456 10 12.3456C8.8019 12.3456 7.80348 11.9692 6.80506 11.2163C6.30585 10.9653 5.60696 10.8398 5.00791 11.2163C2.81139 12.3456 1.11408 14.2278 0.2155 16.4865C-0.483392 18.1178 0.614868 20 2.1125 20H17.8875C19.3851 20 20.4834 18.1178 19.7845 16.361Z" fill="white"/>
</svg>
