<svg width="29" height="26" viewBox="0 0 29 26" fill="none" xmlns="http://www.w3.org/2000/svg">
<mask id="mask0_1123_205" style="mask-type:luminance" maskUnits="userSpaceOnUse" x="3" y="6" width="21" height="20">
<path d="M7.41627 8.66666C7.41627 8.66666 4.53849 10.0521 3.65308 14.9539C3.23611 17.2637 3.77392 20.7643 5.97738 22.2C9.74056 24.6513 14.3884 26.2493 17.3766 24.7576C20.3647 23.2659 26.2836 16.6037 22.1356 10.7983C19.5897 7.23525 18.262 6.85531 14.8307 6.53571C11.4002 6.2161 7.52666 8.66666 7.41627 8.66666Z" fill="white"/>
</mask>
<g mask="url(#mask0_1123_205)">
<path fill-rule="evenodd" clip-rule="evenodd" d="M7.41627 8.66666C7.41627 8.66666 4.53849 10.0521 3.65308 14.9539C3.23611 17.2637 3.77392 20.7643 5.97738 22.2C9.74056 24.6513 14.3884 26.2493 17.3766 24.7576C20.3647 23.2659 26.2836 16.6037 22.1356 10.7983C19.5897 7.23525 18.262 6.85531 14.8307 6.53571C11.4002 6.2161 7.52666 8.66666 7.41627 8.66666Z" fill="url(#paint0_radial_1123_205)"/>
</g>
<mask id="mask1_1123_205" style="mask-type:luminance" maskUnits="userSpaceOnUse" x="3" y="6" width="21" height="20">
<path d="M7.41627 8.66666C7.41627 8.66666 4.53849 10.0521 3.65308 14.9539C3.23611 17.2637 3.77392 20.7643 5.97738 22.2C9.74056 24.6513 14.3884 26.2493 17.3766 24.7576C20.3647 23.2659 26.2836 16.6037 22.1356 10.7983C19.5897 7.23525 18.262 6.85531 14.8307 6.53571C11.4002 6.2161 7.52666 8.66666 7.41627 8.66666Z" fill="white"/>
</mask>
<g mask="url(#mask1_1123_205)">
<g opacity="0.63077" filter="url(#filter0_f_1123_205)">
<path fill-rule="evenodd" clip-rule="evenodd" d="M8.52246 9.19958C8.20991 9.32024 7.52963 9.91708 7.19471 10.1584C6.74865 10.4809 6.42865 10.766 6.3093 11.2242C6.16385 11.7859 6.08403 12.1996 5.97737 12.6097C5.87816 12.9918 6.55471 13.3882 6.86278 13.4622C7.40506 13.5929 8.09504 13.4658 8.52246 13.5685C9.12292 13.7129 9.20945 14.2077 9.96134 14.2077C10.6424 14.2077 11.1033 14.2249 11.5106 14.421C11.9321 14.6243 12.302 15.015 12.6176 15.1672C13.136 15.4165 13.3269 15.5773 13.8349 15.7002C14.3966 15.8352 14.962 15.7849 15.4953 15.9128C16.3584 16.121 16.3367 15.443 16.4912 14.8476C16.5299 14.6982 17.6414 14.0598 17.7085 13.9951C18.0345 13.6805 18.6088 13.7818 19.1474 13.7818C19.8993 13.7818 19.9888 13.5189 20.3647 13.0356C20.6579 12.6592 20.8071 12.0186 20.8071 11.5438C20.8071 10.8335 20.3476 10.6748 19.9217 10.2654L18.9258 9.30659C18.4813 8.87782 18.0598 8.63147 17.5981 8.45407C16.9036 8.18617 16.6015 8.06408 16.6015 8.87997C16.6015 9.49692 16.8231 9.57952 16.8231 10.2654C16.8231 10.9197 16.7485 11.2242 16.0488 11.2242C15.4797 11.2242 14.8867 11.4641 14.4988 11.6509C14.0251 11.8785 12.8055 11.7572 12.2856 11.7572C11.5449 11.7572 10.5342 11.7888 9.96134 11.6509C9.71444 11.5912 9.11472 10.5211 9.07593 10.3717C8.95062 9.88835 8.52246 10.2087 8.52246 9.19958Z" fill="#FFF6D5"/>
</g>
</g>
<mask id="mask2_1123_205" style="mask-type:luminance" maskUnits="userSpaceOnUse" x="3" y="6" width="21" height="20">
<path d="M7.41627 8.66666C7.41627 8.66666 4.53849 10.0521 3.65308 14.9539C3.23611 17.2637 3.77392 20.7643 5.97738 22.2C9.74056 24.6513 14.3884 26.2493 17.3766 24.7576C20.3647 23.2659 26.2836 16.6037 22.1356 10.7983C19.5897 7.23525 18.262 6.85531 14.8307 6.53571C11.4002 6.2161 7.52666 8.66666 7.41627 8.66666Z" fill="white"/>
</mask>
<g mask="url(#mask2_1123_205)">
<g filter="url(#filter1_f_1123_205)">
<path fill-rule="evenodd" clip-rule="evenodd" d="M22.8032 12.5443C22.7383 13.8148 22.9389 15.1119 22.6667 16.363C22.3683 17.1301 22.2639 18.2196 21.2793 18.4229C20.4714 19.0291 19.5092 19.4686 18.8916 20.2795C18.1747 20.9998 17.4161 21.7159 16.4337 22.0707C15.4141 22.1842 14.8412 23.3534 13.7775 23.2242C13.0234 22.6611 11.6539 22.6812 10.7185 22.5677C9.66747 22.6273 9.78085 21.3317 9.07745 20.872C8.22933 20.1847 7.10523 20.3922 6.13404 20.0927C5.15837 19.6144 4.73468 18.5522 4.10662 17.7384C3.78662 17.2148 3.42559 16.0808 3.53002 17.2615C3.56284 19.1655 4.0738 21.2383 5.60592 22.5483C7.35213 23.8368 9.36314 24.7849 11.4465 25.4528C13.5314 26.0891 15.9966 26.3161 17.9077 25.0915C19.8493 23.826 21.3829 22.0104 22.4466 20.0087C23.6595 17.7162 24.0228 14.9087 22.8032 12.5443Z" fill="#800000"/>
</g>
</g>
<mask id="mask3_1123_205" style="mask-type:luminance" maskUnits="userSpaceOnUse" x="3" y="6" width="21" height="20">
<path d="M7.41627 8.66666C7.41627 8.66666 4.53849 10.0521 3.65308 14.9539C3.23611 17.2637 3.77392 20.7643 5.97738 22.2C9.74056 24.6513 14.3884 26.2493 17.3766 24.7576C20.3647 23.2659 26.2836 16.6037 22.1356 10.7983C19.5897 7.23525 18.262 6.85531 14.8307 6.53571C11.4002 6.2161 7.52666 8.66666 7.41627 8.66666Z" fill="white"/>
</mask>
<g mask="url(#mask3_1123_205)">
<g opacity="0.61538" filter="url(#filter2_f_1123_205)">
<path fill-rule="evenodd" clip-rule="evenodd" d="M7.52665 11.9705C7.4901 12.0416 7.4528 12.1127 7.41625 12.1831C6.51518 13.9183 6.3093 12.8618 6.3093 14.9539C6.22054 15.1249 7.12087 15.522 7.30511 15.5931C7.19993 15.7964 9.98372 15.8065 8.96553 13.3559C8.60376 12.4847 8.32255 12.3533 7.52665 11.9705ZM9.96134 13.3559C9.93225 13.2848 10.7185 14.7579 9.40786 16.0198C9.28404 16.139 11.4219 16.4026 12.8391 17.0849C15.4222 18.3288 15.7027 15.1306 14.278 14.1014C13.8386 13.784 10.6737 13.3559 9.96134 13.3559Z" fill="url(#paint1_linear_1123_205)"/>
</g>
</g>
<g opacity="0.95" filter="url(#filter3_f_1123_205)">
<path fill-rule="evenodd" clip-rule="evenodd" d="M13.4048 11.0842C13.2549 11.0604 13.0751 10.5589 10.9179 10.6308C8.75993 10.7021 7.35163 11.3706 7.14202 11.7045C6.93242 12.039 6.81233 12.5161 6.81233 12.5161L6.60272 12.6355C6.60272 12.6355 6.60272 12.0152 6.6624 11.8958C6.72282 11.7764 8.25047 10.4639 8.73009 10.225C9.20972 9.98615 10.768 9.89049 11.2476 10.1056C11.7265 10.3201 12.6559 10.3682 12.6559 10.3682C12.6559 10.3682 12.8058 9.7473 11.3968 9.05509C9.98847 8.36289 9.20972 7.95767 8.67042 8.10087C8.13112 8.24406 7.35163 8.76871 7.47172 8.9119C7.59182 9.05509 7.59182 8.45855 7.59182 8.45855L8.75993 7.98144C8.75993 7.98144 10.0489 7.79012 10.9776 8.24406C11.9062 8.69741 13.9441 9.55657 13.9441 9.55657C13.9441 9.55657 14.4237 8.79307 14.6632 8.53045C14.9034 8.26783 15.562 6.83529 16.0118 6.6921C16.4608 6.54891 16.9106 6.6208 16.9106 6.6208L16.7309 6.90719L16.8808 7.02662H16.5809C16.5809 7.02662 16.4914 7.14604 16.2214 7.71882C15.9521 8.29159 15.6821 9.43714 15.6821 9.6041C15.6821 9.77166 15.6523 9.91485 15.6523 9.91485C15.6523 9.91485 16.5809 9.7473 17.2105 9.6041C17.8393 9.46091 18.7687 9.17452 19.1581 9.19829C19.5475 9.22265 20.3866 9.17452 20.7462 9.29395C21.1057 9.41338 21.5249 9.34148 21.7949 9.72353C22.0642 10.1056 22.4245 10.9885 22.3044 11.0842C22.1843 11.1798 22.0642 10.2488 21.5249 10.0337C20.9856 9.81919 20.4165 9.58034 19.6071 9.676C18.7986 9.77166 19.8772 9.58034 18.4987 9.93862C17.1202 10.2963 15.7119 10.7259 15.7119 10.7259C15.7119 10.7259 16.4914 11.5375 16.6712 11.7045C16.851 11.872 17.72 12.8982 17.8095 13.1845C17.8997 13.4709 17.8095 14.2588 17.8095 14.2588C17.8095 14.2588 17.8997 13.1845 17.57 12.97C17.2403 12.755 16.8204 12.0628 16.2214 11.8001C15.6224 11.5375 15.0227 10.8453 14.693 10.9172C14.3633 10.9885 14.2738 11.2036 13.9739 11.1555C13.6741 11.1079 13.3145 11.0366 13.4048 11.0842Z" fill="url(#paint2_radial_1123_205)"/>
</g>
<path fill-rule="evenodd" clip-rule="evenodd" d="M12.8735 10.7512C12.7238 10.7224 12.5442 10.1165 10.3864 10.203C8.2292 10.2896 6.82088 11.0974 6.61118 11.5014C6.40139 11.9053 6.28157 12.4823 6.28157 12.4823L6.07178 12.6266C6.07178 12.6266 6.07178 11.8765 6.13173 11.7321C6.19159 11.5879 7.71982 10.001 8.19926 9.71255C8.67871 9.42399 10.2368 9.3086 10.7166 9.56832C11.1955 9.82794 12.1243 9.88564 12.1243 9.88564C12.1243 9.88564 12.2748 9.13552 10.8662 8.29877C9.45765 7.46211 8.67871 6.97161 8.13931 7.1447C7.6 7.31787 6.82088 7.9526 6.94078 8.12568C7.0606 8.29877 7.0606 7.57749 7.0606 7.57749L8.2292 7.00046C8.2292 7.00046 9.51752 6.76968 10.4463 7.31787C11.3751 7.86597 13.4131 8.90465 13.4131 8.90465C13.4131 8.90465 13.8929 7.98145 14.1324 7.66404C14.3718 7.34672 15.0312 5.61552 15.4811 5.44244C15.9301 5.26935 16.3799 5.35589 16.3799 5.35589L16.3694 5.55541L16.4847 6.02574L16.0498 5.84639C16.0498 5.84639 15.96 5.99062 15.6906 6.68305C15.4204 7.37556 15.151 8.76041 15.151 8.96234C15.151 9.16436 15.121 9.33745 15.121 9.33745C15.121 9.33745 16.0498 9.13552 16.6793 8.96234C17.3087 8.78926 18.2375 8.44309 18.6266 8.47194C19.0166 8.50079 19.8556 8.44309 20.2148 8.58733C20.5749 8.73157 20.9939 8.64502 21.2642 9.10667C21.5336 9.56832 21.8928 10.6358 21.7731 10.7512C21.6533 10.8666 21.5336 9.7414 20.9939 9.48168C20.4552 9.22206 19.8856 8.9335 19.0765 9.04898C18.2674 9.16436 19.3459 8.9335 17.9681 9.3663C16.5895 9.79909 15.1809 10.3184 15.1809 10.3184C15.1809 10.3184 15.96 11.2994 16.1396 11.5014C16.3201 11.7033 17.189 12.9438 17.2788 13.2905C17.3686 13.6363 17.2788 14.5886 17.2788 14.5886C17.2788 14.5886 17.3686 13.2905 17.0385 13.0307C16.7092 12.7709 16.2902 11.9342 15.6906 11.6167C15.0911 11.2994 14.4916 10.4627 14.1623 10.5492C13.8331 10.6358 13.7424 10.8955 13.4431 10.8378C13.1437 10.7801 12.7837 10.6935 12.8735 10.7512Z" fill="url(#paint3_radial_1123_205)" stroke="#8D7100" stroke-opacity="0.61864" stroke-width="0.277834"/>
<path opacity="0.73077" d="M15.8094 5.37285C15.8094 5.37285 15.8824 5.35296 15.5567 5.70648C15.2301 6.0599 14.2309 8.75023 13.9659 9.39822L13.3126 9.79097C13.4561 9.79097 14.6798 9.98735 15.1693 9.83021C15.6588 9.67316 17.453 8.92689 18.5138 8.82871C19.5738 8.73052 20.3899 8.63242 20.757 8.92689C21.1241 9.22146 21.5115 9.69278 21.5115 9.69278M8.80606 6.96322C8.80606 6.96322 10.1521 7.51311 10.8045 7.90577C11.4568 8.29852 12.7422 9.30003 12.9667 9.53564C13.1903 9.77135 13.2316 9.79097 13.2316 9.79097C13.2316 9.79097 14.414 9.65354 14.6385 10.0266C14.863 10.3997 16.0867 11.6958 16.0867 11.6958M13.3126 9.81059C13.3126 9.81059 13.2316 9.94802 12.5582 10.0266C11.8856 10.1052 11.3142 9.86954 10.4171 9.81059C9.52004 9.75173 8.68352 9.88916 8.29598 10.0659C7.90853 10.2426 6.46051 11.1263 6.46051 11.3619" stroke="#529330" stroke-width="0.370449"/>
<g filter="url(#filter4_f_1123_205)">
<path d="M13.7257 10.3563C14.4227 10.3563 14.9877 10.0943 14.9877 9.77121C14.9877 9.44808 14.4227 9.18613 13.7257 9.18613C13.0287 9.18613 12.4636 9.44808 12.4636 9.77121C12.4636 10.0943 13.0287 10.3563 13.7257 10.3563Z" fill="#071F05"/>
</g>
<path fill-rule="evenodd" clip-rule="evenodd" d="M13.1111 6.80733L13.0512 9.57711C13.0512 9.57711 12.9913 9.89443 13.3206 9.92328C13.6507 9.95213 14.0416 10.0808 14.1913 9.90769C14.3409 9.73461 14.4571 9.92248 14.2793 8.8846C13.9536 6.97987 13.95 6.74954 13.95 6.74954L13.1111 6.80733Z" fill="url(#paint4_radial_1123_205)"/>
<g opacity="0.46923" filter="url(#filter5_f_1123_205)">
<path fill-rule="evenodd" clip-rule="evenodd" d="M13.2121 6.86832C13.2121 6.86832 13.1889 9.38854 13.2121 9.59108C13.2352 9.79362 13.3523 9.81588 13.3523 9.81588C13.3523 9.81588 13.4694 8.84845 13.4455 8.10581C13.4224 7.36317 13.2121 6.84534 13.2121 6.86832Z" fill="#E2E3DB"/>
</g>
<path d="M13.5335 6.89101C13.7697 6.87947 13.9586 6.82592 13.9555 6.77141C13.9523 6.7169 13.7582 6.68207 13.522 6.69361C13.2857 6.70515 13.0968 6.7587 13.1 6.81321C13.1032 6.86772 13.2973 6.90255 13.5335 6.89101Z" fill="#89A02C"/>
<defs>
<filter id="filter0_f_1123_205" x="-20.2039" y="-17.9191" width="67.1824" height="60.0418" filterUnits="userSpaceOnUse" color-interpolation-filters="sRGB">
<feFlood flood-opacity="0" result="BackgroundImageFix"/>
<feBlend mode="normal" in="SourceGraphic" in2="BackgroundImageFix" result="shape"/>
<feGaussianBlur stdDeviation="13.0857" result="effect1_foregroundBlur_1123_205"/>
</filter>
<filter id="filter1_f_1123_205" x="-25.7" y="-16.6673" width="78.4683" height="71.8499" filterUnits="userSpaceOnUse" color-interpolation-filters="sRGB">
<feFlood flood-opacity="0" result="BackgroundImageFix"/>
<feBlend mode="normal" in="SourceGraphic" in2="BackgroundImageFix" result="shape"/>
<feGaussianBlur stdDeviation="14.6058" result="effect1_foregroundBlur_1123_205"/>
</filter>
<filter id="filter2_f_1123_205" x="0.442234" y="6.10953" width="20.5501" height="17.1193" filterUnits="userSpaceOnUse" color-interpolation-filters="sRGB">
<feFlood flood-opacity="0" result="BackgroundImageFix"/>
<feBlend mode="normal" in="SourceGraphic" in2="BackgroundImageFix" result="shape"/>
<feGaussianBlur stdDeviation="2.93046" result="effect1_foregroundBlur_1123_205"/>
</filter>
<filter id="filter3_f_1123_205" x="-1.71661e-05" y="1.33514e-05" width="28.9309" height="20.8615" filterUnits="userSpaceOnUse" color-interpolation-filters="sRGB">
<feFlood flood-opacity="0" result="BackgroundImageFix"/>
<feBlend mode="normal" in="SourceGraphic" in2="BackgroundImageFix" result="shape"/>
<feGaussianBlur stdDeviation="3.30137" result="effect1_foregroundBlur_1123_205"/>
</filter>
<filter id="filter4_f_1123_205" x="7.553" y="4.2755" width="12.3454" height="10.9914" filterUnits="userSpaceOnUse" color-interpolation-filters="sRGB">
<feFlood flood-opacity="0" result="BackgroundImageFix"/>
<feBlend mode="normal" in="SourceGraphic" in2="BackgroundImageFix" result="shape"/>
<feGaussianBlur stdDeviation="2.45531" result="effect1_foregroundBlur_1123_205"/>
</filter>
<filter id="filter5_f_1123_205" x="13.0437" y="6.70954" width="0.563033" height="3.26439" filterUnits="userSpaceOnUse" color-interpolation-filters="sRGB">
<feFlood flood-opacity="0" result="BackgroundImageFix"/>
<feBlend mode="normal" in="SourceGraphic" in2="BackgroundImageFix" result="shape"/>
<feGaussianBlur stdDeviation="0.0790213" result="effect1_foregroundBlur_1123_205"/>
</filter>
<radialGradient id="paint0_radial_1123_205" cx="0" cy="0" r="1" gradientTransform="matrix(0.0671379 -4.53225 10.4037 0.142874 12.6581 14.8549)" gradientUnits="userSpaceOnUse">
<stop stop-color="#FF8626"/>
<stop offset="1" stop-color="#E12E00"/>
</radialGradient>
<linearGradient id="paint1_linear_1123_205" x1="8.06893" y1="10.3717" x2="8.87104" y2="18.4399" gradientUnits="userSpaceOnUse">
<stop stop-color="white"/>
<stop offset="1" stop-color="white" stop-opacity="0"/>
</linearGradient>
<radialGradient id="paint2_radial_1123_205" cx="0" cy="0" r="1" gradientTransform="matrix(8.41553 -0.0600674 0.0294516 3.82788 12.4533 10.4909)" gradientUnits="userSpaceOnUse">
<stop/>
<stop offset="1" stop-opacity="0"/>
</radialGradient>
<radialGradient id="paint3_radial_1123_205" cx="0" cy="0" r="1" gradientTransform="matrix(-0.127915 2.34357 -5.48828 -0.277724 13.9346 9.35035)" gradientUnits="userSpaceOnUse">
<stop stop-color="#163800"/>
<stop offset="0.69504" stop-color="#598C1D"/>
<stop offset="1" stop-color="#91A125"/>
</radialGradient>
<radialGradient id="paint4_radial_1123_205" cx="0" cy="0" r="1" gradientUnits="userSpaceOnUse" gradientTransform="translate(13.7083 9.84318) rotate(-90) scale(2.23428 1.06123)">
<stop stop-color="#152609"/>
<stop offset="1" stop-color="#457526"/>
</radialGradient>
</defs>
</svg>
